<?xml version="1.0" encoding="utf-8" standalone="no"?>
<!DOCTYPE svg PUBLIC "-//W3C//DTD SVG 1.1//EN"
  "http://www.w3.org/Graphics/SVG/1.1/DTD/svg11.dtd">
<svg xmlns:xlink="http://www.w3.org/1999/xlink" width="1080pt" height="360pt" viewBox="0 0 1080 360" xmlns="http://www.w3.org/2000/svg" version="1.1">
 <metadata>
  <rdf:RDF xmlns:dc="http://purl.org/dc/elements/1.1/" xmlns:cc="http://creativecommons.org/ns#" xmlns:rdf="http://www.w3.org/1999/02/22-rdf-syntax-ns#">
   <cc:Work>
    <dc:type rdf:resource="http://purl.org/dc/dcmitype/StillImage"/>
    <dc:date>2023-04-09T15:44:36.824030</dc:date>
    <dc:format>image/svg+xml</dc:format>
    <dc:creator>
     <cc:Agent>
      <dc:title>Matplotlib v3.5.1, https://matplotlib.org/</dc:title>
     </cc:Agent>
    </dc:creator>
   </cc:Work>
  </rdf:RDF>
 </metadata>
 <defs>
  <style type="text/css">*{stroke-linejoin: round; stroke-linecap: butt}</style>
 </defs>
 <g id="figure_1">
  <g id="patch_1">
   <path d="M 0 360 
L 1080 360 
L 1080 0 
L 0 0 
L 0 360 
z
" style="fill: none"/>
  </g>
  <g id="axes_1">
   <g id="patch_2">
    <path d="M 135 315 
L 972 315 
L 972 43.2 
L 135 43.2 
z
" style="fill: #ffffff"/>
   </g>
   <g id="patch_3">
    <path d="M 143.71875 211.903448 
L 149.53125 211.903448 
L 149.53125 168.458281 
L 143.71875 168.458281 
z
" clip-path="url(#pbfcf77af1e)" style="fill: #0000ff"/>
   </g>
   <g id="patch_4">
    <path d="M 178.59375 211.903448 
L 184.40625 211.903448 
L 184.40625 142.658964 
L 178.59375 142.658964 
z
" clip-path="url(#pbfcf77af1e)" style="fill: #0000ff"/>
   </g>
   <g id="patch_5">
    <path d="M 213.46875 211.903448 
L 219.28125 211.903448 
L 219.28125 150.830118 
L 213.46875 150.830118 
z
" clip-path="url(#pbfcf77af1e)" style="fill: #0000ff"/>
   </g>
   <g id="patch_6">
    <path d="M 248.34375 211.903448 
L 254.15625 211.903448 
L 254.15625 138.464044 
L 248.34375 138.464044 
z
" clip-path="url(#pbfcf77af1e)" style="fill: #0000ff"/>
   </g>
   <g id="patch_7">
    <path d="M 283.21875 211.903448 
L 289.03125 211.903448 
L 289.03125 146.963867 
L 283.21875 146.963867 
z
" clip-path="url(#pbfcf77af1e)" style="fill: #0000ff"/>
   </g>
   <g id="patch_8">
    <path d="M 318.09375 211.903448 
L 323.90625 211.903448 
L 323.90625 94.430323 
L 318.09375 94.430323 
z
" clip-path="url(#pbfcf77af1e)" style="fill: #0000ff"/>
   </g>
   <g id="patch_9">
    <path d="M 352.96875 211.903448 
L 358.78125 211.903448 
L 358.78125 85.4171 
L 352.96875 85.4171 
z
" clip-path="url(#pbfcf77af1e)" style="fill: #0000ff"/>
   </g>
   <g id="patch_10">
    <path d="M 387.84375 211.903448 
L 393.65625 211.903448 
L 393.65625 108.239702 
L 387.84375 108.239702 
z
" clip-path="url(#pbfcf77af1e)" style="fill: #0000ff"/>
   </g>
   <g id="patch_11">
    <path d="M 422.71875 211.903448 
L 428.53125 211.903448 
L 428.53125 130.408573 
L 422.71875 130.408573 
z
" clip-path="url(#pbfcf77af1e)" style="fill: #0000ff"/>
   </g>
   <g id="patch_12">
    <path d="M 457.59375 211.903448 
L 463.40625 211.903448 
L 463.40625 109.8853 
L 457.59375 109.8853 
z
" clip-path="url(#pbfcf77af1e)" style="fill: #0000ff"/>
   </g>
   <g id="patch_13">
    <path d="M 492.46875 211.903448 
L 498.28125 211.903448 
L 498.28125 76.013835 
L 492.46875 76.013835 
z
" clip-path="url(#pbfcf77af1e)" style="fill: #0000ff"/>
   </g>
   <g id="patch_14">
    <path d="M 527.34375 211.903448 
L 533.15625 211.903448 
L 533.15625 123.455329 
L 527.34375 123.455329 
z
" clip-path="url(#pbfcf77af1e)" style="fill: #0000ff"/>
   </g>
   <g id="patch_15">
    <path d="M 562.21875 211.903448 
L 568.03125 211.903448 
L 568.03125 99.468789 
L 562.21875 99.468789 
z
" clip-path="url(#pbfcf77af1e)" style="fill: #0000ff"/>
   </g>
   <g id="patch_16">
    <path d="M 597.09375 211.903448 
L 602.90625 211.903448 
L 602.90625 154.337853 
L 597.09375 154.337853 
z
" clip-path="url(#pbfcf77af1e)" style="fill: #0000ff"/>
   </g>
   <g id="patch_17">
    <path d="M 631.96875 211.903448 
L 637.78125 211.903448 
L 637.78125 131.850992 
L 631.96875 131.850992 
z
" clip-path="url(#pbfcf77af1e)" style="fill: #0000ff"/>
   </g>
   <g id="patch_18">
    <path d="M 666.84375 211.903448 
L 672.65625 211.903448 
L 672.65625 169.40274 
L 666.84375 169.40274 
z
" clip-path="url(#pbfcf77af1e)" style="fill: #0000ff"/>
   </g>
   <g id="patch_19">
    <path d="M 701.71875 211.903448 
L 707.53125 211.903448 
L 707.53125 156.732403 
L 701.71875 156.732403 
z
" clip-path="url(#pbfcf77af1e)" style="fill: #0000ff"/>
   </g>
   <g id="patch_20">
    <path d="M 736.59375 211.903448 
L 742.40625 211.903448 
L 742.40625 152.301466 
L 736.59375 152.301466 
z
" clip-path="url(#pbfcf77af1e)" style="fill: #0000ff"/>
   </g>
   <g id="patch_21">
    <path d="M 771.46875 211.903448 
L 777.28125 211.903448 
L 777.28125 167.749786 
L 771.46875 167.749786 
z
" clip-path="url(#pbfcf77af1e)" style="fill: #0000ff"/>
   </g>
   <g id="patch_22">
    <path d="M 806.34375 211.903448 
L 812.15625 211.903448 
L 812.15625 152.007889 
L 806.34375 152.007889 
z
" clip-path="url(#pbfcf77af1e)" style="fill: #0000ff"/>
   </g>
   <g id="patch_23">
    <path d="M 841.21875 211.903448 
L 847.03125 211.903448 
L 847.03125 167.344665 
L 841.21875 167.344665 
z
" clip-path="url(#pbfcf77af1e)" style="fill: #0000ff"/>
   </g>
   <g id="patch_24">
    <path d="M 876.09375 211.903448 
L 881.90625 211.903448 
L 881.90625 165.202386 
L 876.09375 165.202386 
z
" clip-path="url(#pbfcf77af1e)" style="fill: #0000ff"/>
   </g>
   <g id="patch_25">
    <path d="M 910.96875 211.903448 
L 916.78125 211.903448 
L 916.78125 148.528815 
L 910.96875 148.528815 
z
" clip-path="url(#pbfcf77af1e)" style="fill: #0000ff"/>
   </g>
   <g id="patch_26">
    <path d="M 945.84375 211.903448 
L 951.65625 211.903448 
L 951.65625 101.962052 
L 945.84375 101.962052 
z
" clip-path="url(#pbfcf77af1e)" style="fill: #0000ff"/>
   </g>
   <g id="patch_27">
    <path d="M 149.53125 211.903448 
L 155.34375 211.903448 
L 155.34375 136.202826 
L 149.53125 136.202826 
z
" clip-path="url(#pbfcf77af1e)" style="fill: #008000"/>
   </g>
   <g id="patch_28">
    <path d="M 184.40625 211.903448 
L 190.21875 211.903448 
L 190.21875 202.2686 
L 184.40625 202.2686 
z
" clip-path="url(#pbfcf77af1e)" style="fill: #008000"/>
   </g>
   <g id="patch_29">
    <path d="M 219.28125 211.903448 
L 225.09375 211.903448 
L 225.09375 141.034798 
L 219.28125 141.034798 
z
" clip-path="url(#pbfcf77af1e)" style="fill: #008000"/>
   </g>
   <g id="patch_30">
    <path d="M 254.15625 211.903448 
L 259.96875 211.903448 
L 259.96875 148.044374 
L 254.15625 148.044374 
z
" clip-path="url(#pbfcf77af1e)" style="fill: #008000"/>
   </g>
   <g id="patch_31">
    <path d="M 289.03125 211.903448 
L 294.84375 211.903448 
L 294.84375 116.714544 
L 289.03125 116.714544 
z
" clip-path="url(#pbfcf77af1e)" style="fill: #008000"/>
   </g>
   <g id="patch_32">
    <path d="M 323.90625 211.903448 
L 329.71875 211.903448 
L 329.71875 166.713601 
L 323.90625 166.713601 
z
" clip-path="url(#pbfcf77af1e)" style="fill: #008000"/>
   </g>
   <g id="patch_33">
    <path d="M 358.78125 211.903448 
L 364.59375 211.903448 
L 364.59375 174.572203 
L 358.78125 174.572203 
z
" clip-path="url(#pbfcf77af1e)" style="fill: #008000"/>
   </g>
   <g id="patch_34">
    <path d="M 393.65625 211.903448 
L 399.46875 211.903448 
L 399.46875 147.542939 
L 393.65625 147.542939 
z
" clip-path="url(#pbfcf77af1e)" style="fill: #008000"/>
   </g>
   <g id="patch_35">
    <path d="M 428.53125 211.903448 
L 434.34375 211.903448 
L 434.34375 137.631932 
L 428.53125 137.631932 
z
" clip-path="url(#pbfcf77af1e)" style="fill: #008000"/>
   </g>
   <g id="patch_36">
    <path d="M 463.40625 211.903448 
L 469.21875 211.903448 
L 469.21875 155.863661 
L 463.40625 155.863661 
z
" clip-path="url(#pbfcf77af1e)" style="fill: #008000"/>
   </g>
   <g id="patch_37">
    <path d="M 498.28125 211.903448 
L 504.09375 211.903448 
L 504.09375 191.290342 
L 498.28125 191.290342 
z
" clip-path="url(#pbfcf77af1e)" style="fill: #008000"/>
   </g>
   <g id="patch_38">
    <path d="M 533.15625 211.903448 
L 538.96875 211.903448 
L 538.96875 131.890491 
L 533.15625 131.890491 
z
" clip-path="url(#pbfcf77af1e)" style="fill: #008000"/>
   </g>
   <g id="patch_39">
    <path d="M 568.03125 211.903448 
L 573.84375 211.903448 
L 573.84375 174.737725 
L 568.03125 174.737725 
z
" clip-path="url(#pbfcf77af1e)" style="fill: #008000"/>
   </g>
   <g id="patch_40">
    <path d="M 602.90625 211.903448 
L 608.71875 211.903448 
L 608.71875 150.826185 
L 602.90625 150.826185 
z
" clip-path="url(#pbfcf77af1e)" style="fill: #008000"/>
   </g>
   <g id="patch_41">
    <path d="M 637.78125 211.903448 
L 643.59375 211.903448 
L 643.59375 208.747317 
L 637.78125 208.747317 
z
" clip-path="url(#pbfcf77af1e)" style="fill: #008000"/>
   </g>
   <g id="patch_42">
    <path d="M 672.65625 211.903448 
L 678.46875 211.903448 
L 678.46875 177.963063 
L 672.65625 177.963063 
z
" clip-path="url(#pbfcf77af1e)" style="fill: #008000"/>
   </g>
   <g id="patch_43">
    <path d="M 707.53125 211.903448 
L 713.34375 211.903448 
L 713.34375 159.962945 
L 707.53125 159.962945 
z
" clip-path="url(#pbfcf77af1e)" style="fill: #008000"/>
   </g>
   <g id="patch_44">
    <path d="M 742.40625 211.903448 
L 748.21875 211.903448 
L 748.21875 190.083245 
L 742.40625 190.083245 
z
" clip-path="url(#pbfcf77af1e)" style="fill: #008000"/>
   </g>
   <g id="patch_45">
    <path d="M 777.28125 211.903448 
L 783.09375 211.903448 
L 783.09375 168.814823 
L 777.28125 168.814823 
z
" clip-path="url(#pbfcf77af1e)" style="fill: #008000"/>
   </g>
   <g id="patch_46">
    <path d="M 812.15625 211.903448 
L 817.96875 211.903448 
L 817.96875 171.250531 
L 812.15625 171.250531 
z
" clip-path="url(#pbfcf77af1e)" style="fill: #008000"/>
   </g>
   <g id="patch_47">
    <path d="M 847.03125 211.903448 
L 852.84375 211.903448 
L 852.84375 142.513107 
L 847.03125 142.513107 
z
" clip-path="url(#pbfcf77af1e)" style="fill: #008000"/>
   </g>
   <g id="patch_48">
    <path d="M 881.90625 211.903448 
L 887.71875 211.903448 
L 887.71875 173.256416 
L 881.90625 173.256416 
z
" clip-path="url(#pbfcf77af1e)" style="fill: #008000"/>
   </g>
   <g id="patch_49">
    <path d="M 916.78125 211.903448 
L 922.59375 211.903448 
L 922.59375 134.607508 
L 916.78125 134.607508 
z
" clip-path="url(#pbfcf77af1e)" style="fill: #008000"/>
   </g>
   <g id="patch_50">
    <path d="M 951.65625 211.903448 
L 957.46875 211.903448 
L 957.46875 161.650209 
L 951.65625 161.650209 
z
" clip-path="url(#pbfcf77af1e)" style="fill: #008000"/>
   </g>
   <g id="patch_51">
    <path d="M 155.34375 211.903448 
L 161.15625 211.903448 
L 161.15625 279.349852 
L 155.34375 279.349852 
z
" clip-path="url(#pbfcf77af1e)" style="fill: #ff0000"/>
   </g>
   <g id="patch_52">
    <path d="M 190.21875 211.903448 
L 196.03125 211.903448 
L 196.03125 248.911619 
L 190.21875 248.911619 
z
" clip-path="url(#pbfcf77af1e)" style="fill: #ff0000"/>
   </g>
   <g id="patch_53">
    <path d="M 225.09375 211.903448 
L 230.90625 211.903448 
L 230.90625 276.600913 
L 225.09375 276.600913 
z
" clip-path="url(#pbfcf77af1e)" style="fill: #ff0000"/>
   </g>
   <g id="patch_54">
    <path d="M 259.96875 211.903448 
L 265.78125 211.903448 
L 265.78125 290.820251 
L 259.96875 290.820251 
z
" clip-path="url(#pbfcf77af1e)" style="fill: #ff0000"/>
   </g>
   <g id="patch_55">
    <path d="M 294.84375 211.903448 
L 300.65625 211.903448 
L 300.65625 263.050651 
L 294.84375 263.050651 
z
" clip-path="url(#pbfcf77af1e)" style="fill: #ff0000"/>
   </g>
   <g id="patch_56">
    <path d="M 329.71875 211.903448 
L 335.53125 211.903448 
L 335.53125 265.60554 
L 329.71875 265.60554 
z
" clip-path="url(#pbfcf77af1e)" style="fill: #ff0000"/>
   </g>
   <g id="patch_57">
    <path d="M 364.59375 211.903448 
L 370.40625 211.903448 
L 370.40625 292.560253 
L 364.59375 292.560253 
z
" clip-path="url(#pbfcf77af1e)" style="fill: #ff0000"/>
   </g>
   <g id="patch_58">
    <path d="M 399.46875 211.903448 
L 405.28125 211.903448 
L 405.28125 299.408716 
L 399.46875 299.408716 
z
" clip-path="url(#pbfcf77af1e)" style="fill: #ff0000"/>
   </g>
   <g id="patch_59">
    <path d="M 434.34375 211.903448 
L 440.15625 211.903448 
L 440.15625 278.686958 
L 434.34375 278.686958 
z
" clip-path="url(#pbfcf77af1e)" style="fill: #ff0000"/>
   </g>
   <g id="patch_60">
    <path d="M 469.21875 211.903448 
L 475.03125 211.903448 
L 475.03125 243.42762 
L 469.21875 243.42762 
z
" clip-path="url(#pbfcf77af1e)" style="fill: #ff0000"/>
   </g>
   <g id="patch_61">
    <path d="M 504.09375 211.903448 
L 509.90625 211.903448 
L 509.90625 293.793379 
L 504.09375 293.793379 
z
" clip-path="url(#pbfcf77af1e)" style="fill: #ff0000"/>
   </g>
   <g id="patch_62">
    <path d="M 538.96875 211.903448 
L 544.78125 211.903448 
L 544.78125 276.850853 
L 538.96875 276.850853 
z
" clip-path="url(#pbfcf77af1e)" style="fill: #ff0000"/>
   </g>
   <g id="patch_63">
    <path d="M 573.84375 211.903448 
L 579.65625 211.903448 
L 579.65625 304.510328 
L 573.84375 304.510328 
z
" clip-path="url(#pbfcf77af1e)" style="fill: #ff0000"/>
   </g>
   <g id="patch_64">
    <path d="M 608.71875 211.903448 
L 614.53125 211.903448 
L 614.53125 255.856406 
L 608.71875 255.856406 
z
" clip-path="url(#pbfcf77af1e)" style="fill: #ff0000"/>
   </g>
   <g id="patch_65">
    <path d="M 643.59375 211.903448 
L 649.40625 211.903448 
L 649.40625 259.965444 
L 643.59375 259.965444 
z
" clip-path="url(#pbfcf77af1e)" style="fill: #ff0000"/>
   </g>
   <g id="patch_66">
    <path d="M 678.46875 211.903448 
L 684.28125 211.903448 
L 684.28125 236.730128 
L 678.46875 236.730128 
z
" clip-path="url(#pbfcf77af1e)" style="fill: #ff0000"/>
   </g>
   <g id="patch_67">
    <path d="M 713.34375 211.903448 
L 719.15625 211.903448 
L 719.15625 261.842216 
L 713.34375 261.842216 
z
" clip-path="url(#pbfcf77af1e)" style="fill: #ff0000"/>
   </g>
   <g id="patch_68">
    <path d="M 748.21875 211.903448 
L 754.03125 211.903448 
L 754.03125 259.945734 
L 748.21875 259.945734 
z
" clip-path="url(#pbfcf77af1e)" style="fill: #ff0000"/>
   </g>
   <g id="patch_69">
    <path d="M 783.09375 211.903448 
L 788.90625 211.903448 
L 788.90625 252.177548 
L 783.09375 252.177548 
z
" clip-path="url(#pbfcf77af1e)" style="fill: #ff0000"/>
   </g>
   <g id="patch_70">
    <path d="M 817.96875 211.903448 
L 823.78125 211.903448 
L 823.78125 270.688756 
L 817.96875 270.688756 
z
" clip-path="url(#pbfcf77af1e)" style="fill: #ff0000"/>
   </g>
   <g id="patch_71">
    <path d="M 852.84375 211.903448 
L 858.65625 211.903448 
L 858.65625 282.617939 
L 852.84375 282.617939 
z
" clip-path="url(#pbfcf77af1e)" style="fill: #ff0000"/>
   </g>
   <g id="patch_72">
    <path d="M 887.71875 211.903448 
L 893.53125 211.903448 
L 893.53125 252.982735 
L 887.71875 252.982735 
z
" clip-path="url(#pbfcf77af1e)" style="fill: #ff0000"/>
   </g>
   <g id="patch_73">
    <path d="M 922.59375 211.903448 
L 928.40625 211.903448 
L 928.40625 256.926804 
L 922.59375 256.926804 
z
" clip-path="url(#pbfcf77af1e)" style="fill: #ff0000"/>
   </g>
   <g id="patch_74">
    <path d="M 957.46875 211.903448 
L 963.28125 211.903448 
L 963.28125 211.903448 
L 957.46875 211.903448 
z
" clip-path="url(#pbfcf77af1e)" style="fill: #ff0000"/>
   </g>
   <g id="matplotlib.axis_1">
    <g id="xtick_1">
     <g id="line2d_1">
      <defs>
       <path id="m5a5d353fbb" d="M 0 0 
L 0 3.5 
" style="stroke: #000000; stroke-width: 0.8"/>
      </defs>
      <g>
       <use xlink:href="#m5a5d353fbb" x="152.4375" y="315" style="stroke: #000000; stroke-width: 0.8"/>
      </g>
     </g>
     <g id="text_1">
      <!-- 2000 -->
      <g transform="translate(146.371832 346.380013)rotate(-50)scale(0.1 -0.1)">
       <defs>
        <path id="DejaVuSans-32" d="M 1228 531 
L 3431 531 
L 3431 0 
L 469 0 
L 469 531 
Q 828 903 1448 1529 
Q 2069 2156 2228 2338 
Q 2531 2678 2651 2914 
Q 2772 3150 2772 3378 
Q 2772 3750 2511 3984 
Q 2250 4219 1831 4219 
Q 1534 4219 1204 4116 
Q 875 4013 500 3803 
L 500 4441 
Q 881 4594 1212 4672 
Q 1544 4750 1819 4750 
Q 2544 4750 2975 4387 
Q 3406 4025 3406 3419 
Q 3406 3131 3298 2873 
Q 3191 2616 2906 2266 
Q 2828 2175 2409 1742 
Q 1991 1309 1228 531 
z
" transform="scale(0.015625)"/>
        <path id="DejaVuSans-30" d="M 2034 4250 
Q 1547 4250 1301 3770 
Q 1056 3291 1056 2328 
Q 1056 1369 1301 889 
Q 1547 409 2034 409 
Q 2525 409 2770 889 
Q 3016 1369 3016 2328 
Q 3016 3291 2770 3770 
Q 2525 4250 2034 4250 
z
M 2034 4750 
Q 2819 4750 3233 4129 
Q 3647 3509 3647 2328 
Q 3647 1150 3233 529 
Q 2819 -91 2034 -91 
Q 1250 -91 836 529 
Q 422 1150 422 2328 
Q 422 3509 836 4129 
Q 1250 4750 2034 4750 
z
" transform="scale(0.015625)"/>
       </defs>
       <use xlink:href="#DejaVuSans-32"/>
       <use xlink:href="#DejaVuSans-30" x="63.623047"/>
       <use xlink:href="#DejaVuSans-30" x="127.246094"/>
       <use xlink:href="#DejaVuSans-30" x="190.869141"/>
      </g>
     </g>
    </g>
    <g id="xtick_2">
     <g id="line2d_2">
      <g>
       <use xlink:href="#m5a5d353fbb" x="187.3125" y="315" style="stroke: #000000; stroke-width: 0.8"/>
      </g>
     </g>
     <g id="text_2">
      <!-- 2001 -->
      <g transform="translate(181.246832 346.380013)rotate(-50)scale(0.1 -0.1)">
       <defs>
        <path id="DejaVuSans-31" d="M 794 531 
L 1825 531 
L 1825 4091 
L 703 3866 
L 703 4441 
L 1819 4666 
L 2450 4666 
L 2450 531 
L 3481 531 
L 3481 0 
L 794 0 
L 794 531 
z
" transform="scale(0.015625)"/>
       </defs>
       <use xlink:href="#DejaVuSans-32"/>
       <use xlink:href="#DejaVuSans-30" x="63.623047"/>
       <use xlink:href="#DejaVuSans-30" x="127.246094"/>
       <use xlink:href="#DejaVuSans-31" x="190.869141"/>
      </g>
     </g>
    </g>
    <g id="xtick_3">
     <g id="line2d_3">
      <g>
       <use xlink:href="#m5a5d353fbb" x="222.1875" y="315" style="stroke: #000000; stroke-width: 0.8"/>
      </g>
     </g>
     <g id="text_3">
      <!-- 2002 -->
      <g transform="translate(216.121832 346.380013)rotate(-50)scale(0.1 -0.1)">
       <use xlink:href="#DejaVuSans-32"/>
       <use xlink:href="#DejaVuSans-30" x="63.623047"/>
       <use xlink:href="#DejaVuSans-30" x="127.246094"/>
       <use xlink:href="#DejaVuSans-32" x="190.869141"/>
      </g>
     </g>
    </g>
    <g id="xtick_4">
     <g id="line2d_4">
      <g>
       <use xlink:href="#m5a5d353fbb" x="257.0625" y="315" style="stroke: #000000; stroke-width: 0.8"/>
      </g>
     </g>
     <g id="text_4">
      <!-- 2003 -->
      <g transform="translate(250.996832 346.380013)rotate(-50)scale(0.1 -0.1)">
       <defs>
        <path id="DejaVuSans-33" d="M 2597 2516 
Q 3050 2419 3304 2112 
Q 3559 1806 3559 1356 
Q 3559 666 3084 287 
Q 2609 -91 1734 -91 
Q 1441 -91 1130 -33 
Q 819 25 488 141 
L 488 750 
Q 750 597 1062 519 
Q 1375 441 1716 441 
Q 2309 441 2620 675 
Q 2931 909 2931 1356 
Q 2931 1769 2642 2001 
Q 2353 2234 1838 2234 
L 1294 2234 
L 1294 2753 
L 1863 2753 
Q 2328 2753 2575 2939 
Q 2822 3125 2822 3475 
Q 2822 3834 2567 4026 
Q 2313 4219 1838 4219 
Q 1578 4219 1281 4162 
Q 984 4106 628 3988 
L 628 4550 
Q 988 4650 1302 4700 
Q 1616 4750 1894 4750 
Q 2613 4750 3031 4423 
Q 3450 4097 3450 3541 
Q 3450 3153 3228 2886 
Q 3006 2619 2597 2516 
z
" transform="scale(0.015625)"/>
       </defs>
       <use xlink:href="#DejaVuSans-32"/>
       <use xlink:href="#DejaVuSans-30" x="63.623047"/>
       <use xlink:href="#DejaVuSans-30" x="127.246094"/>
       <use xlink:href="#DejaVuSans-33" x="190.869141"/>
      </g>
     </g>
    </g>
    <g id="xtick_5">
     <g id="line2d_5">
      <g>
       <use xlink:href="#m5a5d353fbb" x="291.9375" y="315" style="stroke: #000000; stroke-width: 0.8"/>
      </g>
     </g>
     <g id="text_5">
      <!-- 2004 -->
      <g transform="translate(285.871832 346.380013)rotate(-50)scale(0.1 -0.1)">
       <defs>
        <path id="DejaVuSans-34" d="M 2419 4116 
L 825 1625 
L 2419 1625 
L 2419 4116 
z
M 2253 4666 
L 3047 4666 
L 3047 1625 
L 3713 1625 
L 3713 1100 
L 3047 1100 
L 3047 0 
L 2419 0 
L 2419 1100 
L 313 1100 
L 313 1709 
L 2253 4666 
z
" transform="scale(0.015625)"/>
       </defs>
       <use xlink:href="#DejaVuSans-32"/>
       <use xlink:href="#DejaVuSans-30" x="63.623047"/>
       <use xlink:href="#DejaVuSans-30" x="127.246094"/>
       <use xlink:href="#DejaVuSans-34" x="190.869141"/>
      </g>
     </g>
    </g>
    <g id="xtick_6">
     <g id="line2d_6">
      <g>
       <use xlink:href="#m5a5d353fbb" x="326.8125" y="315" style="stroke: #000000; stroke-width: 0.8"/>
      </g>
     </g>
     <g id="text_6">
      <!-- 2005 -->
      <g transform="translate(320.746832 346.380013)rotate(-50)scale(0.1 -0.1)">
       <defs>
        <path id="DejaVuSans-35" d="M 691 4666 
L 3169 4666 
L 3169 4134 
L 1269 4134 
L 1269 2991 
Q 1406 3038 1543 3061 
Q 1681 3084 1819 3084 
Q 2600 3084 3056 2656 
Q 3513 2228 3513 1497 
Q 3513 744 3044 326 
Q 2575 -91 1722 -91 
Q 1428 -91 1123 -41 
Q 819 9 494 109 
L 494 744 
Q 775 591 1075 516 
Q 1375 441 1709 441 
Q 2250 441 2565 725 
Q 2881 1009 2881 1497 
Q 2881 1984 2565 2268 
Q 2250 2553 1709 2553 
Q 1456 2553 1204 2497 
Q 953 2441 691 2322 
L 691 4666 
z
" transform="scale(0.015625)"/>
       </defs>
       <use xlink:href="#DejaVuSans-32"/>
       <use xlink:href="#DejaVuSans-30" x="63.623047"/>
       <use xlink:href="#DejaVuSans-30" x="127.246094"/>
       <use xlink:href="#DejaVuSans-35" x="190.869141"/>
      </g>
     </g>
    </g>
    <g id="xtick_7">
     <g id="line2d_7">
      <g>
       <use xlink:href="#m5a5d353fbb" x="361.6875" y="315" style="stroke: #000000; stroke-width: 0.8"/>
      </g>
     </g>
     <g id="text_7">
      <!-- 2006 -->
      <g transform="translate(355.621832 346.380013)rotate(-50)scale(0.1 -0.1)">
       <defs>
        <path id="DejaVuSans-36" d="M 2113 2584 
Q 1688 2584 1439 2293 
Q 1191 2003 1191 1497 
Q 1191 994 1439 701 
Q 1688 409 2113 409 
Q 2538 409 2786 701 
Q 3034 994 3034 1497 
Q 3034 2003 2786 2293 
Q 2538 2584 2113 2584 
z
M 3366 4563 
L 3366 3988 
Q 3128 4100 2886 4159 
Q 2644 4219 2406 4219 
Q 1781 4219 1451 3797 
Q 1122 3375 1075 2522 
Q 1259 2794 1537 2939 
Q 1816 3084 2150 3084 
Q 2853 3084 3261 2657 
Q 3669 2231 3669 1497 
Q 3669 778 3244 343 
Q 2819 -91 2113 -91 
Q 1303 -91 875 529 
Q 447 1150 447 2328 
Q 447 3434 972 4092 
Q 1497 4750 2381 4750 
Q 2619 4750 2861 4703 
Q 3103 4656 3366 4563 
z
" transform="scale(0.015625)"/>
       </defs>
       <use xlink:href="#DejaVuSans-32"/>
       <use xlink:href="#DejaVuSans-30" x="63.623047"/>
       <use xlink:href="#DejaVuSans-30" x="127.246094"/>
       <use xlink:href="#DejaVuSans-36" x="190.869141"/>
      </g>
     </g>
    </g>
    <g id="xtick_8">
     <g id="line2d_8">
      <g>
       <use xlink:href="#m5a5d353fbb" x="396.5625" y="315" style="stroke: #000000; stroke-width: 0.8"/>
      </g>
     </g>
     <g id="text_8">
      <!-- 2007 -->
      <g transform="translate(390.496832 346.380013)rotate(-50)scale(0.1 -0.1)">
       <defs>
        <path id="DejaVuSans-37" d="M 525 4666 
L 3525 4666 
L 3525 4397 
L 1831 0 
L 1172 0 
L 2766 4134 
L 525 4134 
L 525 4666 
z
" transform="scale(0.015625)"/>
       </defs>
       <use xlink:href="#DejaVuSans-32"/>
       <use xlink:href="#DejaVuSans-30" x="63.623047"/>
       <use xlink:href="#DejaVuSans-30" x="127.246094"/>
       <use xlink:href="#DejaVuSans-37" x="190.869141"/>
      </g>
     </g>
    </g>
    <g id="xtick_9">
     <g id="line2d_9">
      <g>
       <use xlink:href="#m5a5d353fbb" x="431.4375" y="315" style="stroke: #000000; stroke-width: 0.8"/>
      </g>
     </g>
     <g id="text_9">
      <!-- 2008 -->
      <g transform="translate(425.371832 346.380013)rotate(-50)scale(0.1 -0.1)">
       <defs>
        <path id="DejaVuSans-38" d="M 2034 2216 
Q 1584 2216 1326 1975 
Q 1069 1734 1069 1313 
Q 1069 891 1326 650 
Q 1584 409 2034 409 
Q 2484 409 2743 651 
Q 3003 894 3003 1313 
Q 3003 1734 2745 1975 
Q 2488 2216 2034 2216 
z
M 1403 2484 
Q 997 2584 770 2862 
Q 544 3141 544 3541 
Q 544 4100 942 4425 
Q 1341 4750 2034 4750 
Q 2731 4750 3128 4425 
Q 3525 4100 3525 3541 
Q 3525 3141 3298 2862 
Q 3072 2584 2669 2484 
Q 3125 2378 3379 2068 
Q 3634 1759 3634 1313 
Q 3634 634 3220 271 
Q 2806 -91 2034 -91 
Q 1263 -91 848 271 
Q 434 634 434 1313 
Q 434 1759 690 2068 
Q 947 2378 1403 2484 
z
M 1172 3481 
Q 1172 3119 1398 2916 
Q 1625 2713 2034 2713 
Q 2441 2713 2670 2916 
Q 2900 3119 2900 3481 
Q 2900 3844 2670 4047 
Q 2441 4250 2034 4250 
Q 1625 4250 1398 4047 
Q 1172 3844 1172 3481 
z
" transform="scale(0.015625)"/>
       </defs>
       <use xlink:href="#DejaVuSans-32"/>
       <use xlink:href="#DejaVuSans-30" x="63.623047"/>
       <use xlink:href="#DejaVuSans-30" x="127.246094"/>
       <use xlink:href="#DejaVuSans-38" x="190.869141"/>
      </g>
     </g>
    </g>
    <g id="xtick_10">
     <g id="line2d_10">
      <g>
       <use xlink:href="#m5a5d353fbb" x="466.3125" y="315" style="stroke: #000000; stroke-width: 0.8"/>
      </g>
     </g>
     <g id="text_10">
      <!-- 2009 -->
      <g transform="translate(460.246832 346.380013)rotate(-50)scale(0.1 -0.1)">
       <defs>
        <path id="DejaVuSans-39" d="M 703 97 
L 703 672 
Q 941 559 1184 500 
Q 1428 441 1663 441 
Q 2288 441 2617 861 
Q 2947 1281 2994 2138 
Q 2813 1869 2534 1725 
Q 2256 1581 1919 1581 
Q 1219 1581 811 2004 
Q 403 2428 403 3163 
Q 403 3881 828 4315 
Q 1253 4750 1959 4750 
Q 2769 4750 3195 4129 
Q 3622 3509 3622 2328 
Q 3622 1225 3098 567 
Q 2575 -91 1691 -91 
Q 1453 -91 1209 -44 
Q 966 3 703 97 
z
M 1959 2075 
Q 2384 2075 2632 2365 
Q 2881 2656 2881 3163 
Q 2881 3666 2632 3958 
Q 2384 4250 1959 4250 
Q 1534 4250 1286 3958 
Q 1038 3666 1038 3163 
Q 1038 2656 1286 2365 
Q 1534 2075 1959 2075 
z
" transform="scale(0.015625)"/>
       </defs>
       <use xlink:href="#DejaVuSans-32"/>
       <use xlink:href="#DejaVuSans-30" x="63.623047"/>
       <use xlink:href="#DejaVuSans-30" x="127.246094"/>
       <use xlink:href="#DejaVuSans-39" x="190.869141"/>
      </g>
     </g>
    </g>
    <g id="xtick_11">
     <g id="line2d_11">
      <g>
       <use xlink:href="#m5a5d353fbb" x="501.1875" y="315" style="stroke: #000000; stroke-width: 0.8"/>
      </g>
     </g>
     <g id="text_11">
      <!-- 2010 -->
      <g transform="translate(495.121832 346.380013)rotate(-50)scale(0.1 -0.1)">
       <use xlink:href="#DejaVuSans-32"/>
       <use xlink:href="#DejaVuSans-30" x="63.623047"/>
       <use xlink:href="#DejaVuSans-31" x="127.246094"/>
       <use xlink:href="#DejaVuSans-30" x="190.869141"/>
      </g>
     </g>
    </g>
    <g id="xtick_12">
     <g id="line2d_12">
      <g>
       <use xlink:href="#m5a5d353fbb" x="536.0625" y="315" style="stroke: #000000; stroke-width: 0.8"/>
      </g>
     </g>
     <g id="text_12">
      <!-- 2011 -->
      <g transform="translate(529.996832 346.380013)rotate(-50)scale(0.1 -0.1)">
       <use xlink:href="#DejaVuSans-32"/>
       <use xlink:href="#DejaVuSans-30" x="63.623047"/>
       <use xlink:href="#DejaVuSans-31" x="127.246094"/>
       <use xlink:href="#DejaVuSans-31" x="190.869141"/>
      </g>
     </g>
    </g>
    <g id="xtick_13">
     <g id="line2d_13">
      <g>
       <use xlink:href="#m5a5d353fbb" x="570.9375" y="315" style="stroke: #000000; stroke-width: 0.8"/>
      </g>
     </g>
     <g id="text_13">
      <!-- 2012 -->
      <g transform="translate(564.871832 346.380013)rotate(-50)scale(0.1 -0.1)">
       <use xlink:href="#DejaVuSans-32"/>
       <use xlink:href="#DejaVuSans-30" x="63.623047"/>
       <use xlink:href="#DejaVuSans-31" x="127.246094"/>
       <use xlink:href="#DejaVuSans-32" x="190.869141"/>
      </g>
     </g>
    </g>
    <g id="xtick_14">
     <g id="line2d_14">
      <g>
       <use xlink:href="#m5a5d353fbb" x="605.8125" y="315" style="stroke: #000000; stroke-width: 0.8"/>
      </g>
     </g>
     <g id="text_14">
      <!-- 2013 -->
      <g transform="translate(599.746832 346.380013)rotate(-50)scale(0.1 -0.1)">
       <use xlink:href="#DejaVuSans-32"/>
       <use xlink:href="#DejaVuSans-30" x="63.623047"/>
       <use xlink:href="#DejaVuSans-31" x="127.246094"/>
       <use xlink:href="#DejaVuSans-33" x="190.869141"/>
      </g>
     </g>
    </g>
    <g id="xtick_15">
     <g id="line2d_15">
      <g>
       <use xlink:href="#m5a5d353fbb" x="640.6875" y="315" style="stroke: #000000; stroke-width: 0.8"/>
      </g>
     </g>
     <g id="text_15">
      <!-- 2014 -->
      <g transform="translate(634.621832 346.380013)rotate(-50)scale(0.1 -0.1)">
       <use xlink:href="#DejaVuSans-32"/>
       <use xlink:href="#DejaVuSans-30" x="63.623047"/>
       <use xlink:href="#DejaVuSans-31" x="127.246094"/>
       <use xlink:href="#DejaVuSans-34" x="190.869141"/>
      </g>
     </g>
    </g>
    <g id="xtick_16">
     <g id="line2d_16">
      <g>
       <use xlink:href="#m5a5d353fbb" x="675.5625" y="315" style="stroke: #000000; stroke-width: 0.8"/>
      </g>
     </g>
     <g id="text_16">
      <!-- 2015 -->
      <g transform="translate(669.496832 346.380013)rotate(-50)scale(0.1 -0.1)">
       <use xlink:href="#DejaVuSans-32"/>
       <use xlink:href="#DejaVuSans-30" x="63.623047"/>
       <use xlink:href="#DejaVuSans-31" x="127.246094"/>
       <use xlink:href="#DejaVuSans-35" x="190.869141"/>
      </g>
     </g>
    </g>
    <g id="xtick_17">
     <g id="line2d_17">
      <g>
       <use xlink:href="#m5a5d353fbb" x="710.4375" y="315" style="stroke: #000000; stroke-width: 0.8"/>
      </g>
     </g>
     <g id="text_17">
      <!-- 2016 -->
      <g transform="translate(704.371832 346.380013)rotate(-50)scale(0.1 -0.1)">
       <use xlink:href="#DejaVuSans-32"/>
       <use xlink:href="#DejaVuSans-30" x="63.623047"/>
       <use xlink:href="#DejaVuSans-31" x="127.246094"/>
       <use xlink:href="#DejaVuSans-36" x="190.869141"/>
      </g>
     </g>
    </g>
    <g id="xtick_18">
     <g id="line2d_18">
      <g>
       <use xlink:href="#m5a5d353fbb" x="745.3125" y="315" style="stroke: #000000; stroke-width: 0.8"/>
      </g>
     </g>
     <g id="text_18">
      <!-- 2017 -->
      <g transform="translate(739.246832 346.380013)rotate(-50)scale(0.1 -0.1)">
       <use xlink:href="#DejaVuSans-32"/>
       <use xlink:href="#DejaVuSans-30" x="63.623047"/>
       <use xlink:href="#DejaVuSans-31" x="127.246094"/>
       <use xlink:href="#DejaVuSans-37" x="190.869141"/>
      </g>
     </g>
    </g>
    <g id="xtick_19">
     <g id="line2d_19">
      <g>
       <use xlink:href="#m5a5d353fbb" x="780.1875" y="315" style="stroke: #000000; stroke-width: 0.8"/>
      </g>
     </g>
     <g id="text_19">
      <!-- 2018 -->
      <g transform="translate(774.121832 346.380013)rotate(-50)scale(0.1 -0.1)">
       <use xlink:href="#DejaVuSans-32"/>
       <use xlink:href="#DejaVuSans-30" x="63.623047"/>
       <use xlink:href="#DejaVuSans-31" x="127.246094"/>
       <use xlink:href="#DejaVuSans-38" x="190.869141"/>
      </g>
     </g>
    </g>
    <g id="xtick_20">
     <g id="line2d_20">
      <g>
       <use xlink:href="#m5a5d353fbb" x="815.0625" y="315" style="stroke: #000000; stroke-width: 0.8"/>
      </g>
     </g>
     <g id="text_20">
      <!-- 2019 -->
      <g transform="translate(808.996832 346.380013)rotate(-50)scale(0.1 -0.1)">
       <use xlink:href="#DejaVuSans-32"/>
       <use xlink:href="#DejaVuSans-30" x="63.623047"/>
       <use xlink:href="#DejaVuSans-31" x="127.246094"/>
       <use xlink:href="#DejaVuSans-39" x="190.869141"/>
      </g>
     </g>
    </g>
    <g id="xtick_21">
     <g id="line2d_21">
      <g>
       <use xlink:href="#m5a5d353fbb" x="849.9375" y="315" style="stroke: #000000; stroke-width: 0.8"/>
      </g>
     </g>
     <g id="text_21">
      <!-- 2020 -->
      <g transform="translate(843.871832 346.380013)rotate(-50)scale(0.1 -0.1)">
       <use xlink:href="#DejaVuSans-32"/>
       <use xlink:href="#DejaVuSans-30" x="63.623047"/>
       <use xlink:href="#DejaVuSans-32" x="127.246094"/>
       <use xlink:href="#DejaVuSans-30" x="190.869141"/>
      </g>
     </g>
    </g>
    <g id="xtick_22">
     <g id="line2d_22">
      <g>
       <use xlink:href="#m5a5d353fbb" x="884.8125" y="315" style="stroke: #000000; stroke-width: 0.8"/>
      </g>
     </g>
     <g id="text_22">
      <!-- 2021 -->
      <g transform="translate(878.746832 346.380013)rotate(-50)scale(0.1 -0.1)">
       <use xlink:href="#DejaVuSans-32"/>
       <use xlink:href="#DejaVuSans-30" x="63.623047"/>
       <use xlink:href="#DejaVuSans-32" x="127.246094"/>
       <use xlink:href="#DejaVuSans-31" x="190.869141"/>
      </g>
     </g>
    </g>
    <g id="xtick_23">
     <g id="line2d_23">
      <g>
       <use xlink:href="#m5a5d353fbb" x="919.6875" y="315" style="stroke: #000000; stroke-width: 0.8"/>
      </g>
     </g>
     <g id="text_23">
      <!-- 2022 -->
      <g transform="translate(913.621832 346.380013)rotate(-50)scale(0.1 -0.1)">
       <use xlink:href="#DejaVuSans-32"/>
       <use xlink:href="#DejaVuSans-30" x="63.623047"/>
       <use xlink:href="#DejaVuSans-32" x="127.246094"/>
       <use xlink:href="#DejaVuSans-32" x="190.869141"/>
      </g>
     </g>
    </g>
    <g id="xtick_24">
     <g id="line2d_24">
      <g>
       <use xlink:href="#m5a5d353fbb" x="954.5625" y="315" style="stroke: #000000; stroke-width: 0.8"/>
      </g>
     </g>
     <g id="text_24">
      <!-- 2023 -->
      <g transform="translate(948.496832 346.380013)rotate(-50)scale(0.1 -0.1)">
       <use xlink:href="#DejaVuSans-32"/>
       <use xlink:href="#DejaVuSans-30" x="63.623047"/>
       <use xlink:href="#DejaVuSans-32" x="127.246094"/>
       <use xlink:href="#DejaVuSans-33" x="190.869141"/>
      </g>
     </g>
    </g>
   </g>
   <g id="matplotlib.axis_2">
    <g id="ytick_1">
     <g id="line2d_25">
      <defs>
       <path id="mae001b16b4" d="M 0 0 
L -3.5 0 
" style="stroke: #000000; stroke-width: 0.8"/>
      </defs>
      <g>
       <use xlink:href="#mae001b16b4" x="135" y="286.882759" style="stroke: #000000; stroke-width: 0.8"/>
      </g>
     </g>
     <g id="text_25">
      <!-- −40 -->
      <g transform="translate(106.895313 290.681977)scale(0.1 -0.1)">
       <defs>
        <path id="DejaVuSans-2212" d="M 678 2272 
L 4684 2272 
L 4684 1741 
L 678 1741 
L 678 2272 
z
" transform="scale(0.015625)"/>
       </defs>
       <use xlink:href="#DejaVuSans-2212"/>
       <use xlink:href="#DejaVuSans-34" x="83.789062"/>
       <use xlink:href="#DejaVuSans-30" x="147.412109"/>
      </g>
     </g>
    </g>
    <g id="ytick_2">
     <g id="line2d_26">
      <g>
       <use xlink:href="#mae001b16b4" x="135" y="249.393103" style="stroke: #000000; stroke-width: 0.8"/>
      </g>
     </g>
     <g id="text_26">
      <!-- −20 -->
      <g transform="translate(106.895313 253.192322)scale(0.1 -0.1)">
       <use xlink:href="#DejaVuSans-2212"/>
       <use xlink:href="#DejaVuSans-32" x="83.789062"/>
       <use xlink:href="#DejaVuSans-30" x="147.412109"/>
      </g>
     </g>
    </g>
    <g id="ytick_3">
     <g id="line2d_27">
      <g>
       <use xlink:href="#mae001b16b4" x="135" y="211.903448" style="stroke: #000000; stroke-width: 0.8"/>
      </g>
     </g>
     <g id="text_27">
      <!-- 0 -->
      <g transform="translate(121.6375 215.702667)scale(0.1 -0.1)">
       <use xlink:href="#DejaVuSans-30"/>
      </g>
     </g>
    </g>
    <g id="ytick_4">
     <g id="line2d_28">
      <g>
       <use xlink:href="#mae001b16b4" x="135" y="174.413793" style="stroke: #000000; stroke-width: 0.8"/>
      </g>
     </g>
     <g id="text_28">
      <!-- 20 -->
      <g transform="translate(115.275 178.213012)scale(0.1 -0.1)">
       <use xlink:href="#DejaVuSans-32"/>
       <use xlink:href="#DejaVuSans-30" x="63.623047"/>
      </g>
     </g>
    </g>
    <g id="ytick_5">
     <g id="line2d_29">
      <g>
       <use xlink:href="#mae001b16b4" x="135" y="136.924138" style="stroke: #000000; stroke-width: 0.8"/>
      </g>
     </g>
     <g id="text_29">
      <!-- 40 -->
      <g transform="translate(115.275 140.723357)scale(0.1 -0.1)">
       <use xlink:href="#DejaVuSans-34"/>
       <use xlink:href="#DejaVuSans-30" x="63.623047"/>
      </g>
     </g>
    </g>
    <g id="ytick_6">
     <g id="line2d_30">
      <g>
       <use xlink:href="#mae001b16b4" x="135" y="99.434483" style="stroke: #000000; stroke-width: 0.8"/>
      </g>
     </g>
     <g id="text_30">
      <!-- 60 -->
      <g transform="translate(115.275 103.233702)scale(0.1 -0.1)">
       <use xlink:href="#DejaVuSans-36"/>
       <use xlink:href="#DejaVuSans-30" x="63.623047"/>
      </g>
     </g>
    </g>
    <g id="ytick_7">
     <g id="line2d_31">
      <g>
       <use xlink:href="#mae001b16b4" x="135" y="61.944828" style="stroke: #000000; stroke-width: 0.8"/>
      </g>
     </g>
     <g id="text_31">
      <!-- 80 -->
      <g transform="translate(115.275 65.744046)scale(0.1 -0.1)">
       <use xlink:href="#DejaVuSans-38"/>
       <use xlink:href="#DejaVuSans-30" x="63.623047"/>
      </g>
     </g>
    </g>
    <g id="text_32">
     <!-- EAR% -->
     <g transform="translate(100.815625 193.904687)rotate(-90)scale(0.1 -0.1)">
      <defs>
       <path id="DejaVuSans-45" d="M 628 4666 
L 3578 4666 
L 3578 4134 
L 1259 4134 
L 1259 2753 
L 3481 2753 
L 3481 2222 
L 1259 2222 
L 1259 531 
L 3634 531 
L 3634 0 
L 628 0 
L 628 4666 
z
" transform="scale(0.015625)"/>
       <path id="DejaVuSans-41" d="M 2188 4044 
L 1331 1722 
L 3047 1722 
L 2188 4044 
z
M 1831 4666 
L 2547 4666 
L 4325 0 
L 3669 0 
L 3244 1197 
L 1141 1197 
L 716 0 
L 50 0 
L 1831 4666 
z
" transform="scale(0.015625)"/>
       <path id="DejaVuSans-52" d="M 2841 2188 
Q 3044 2119 3236 1894 
Q 3428 1669 3622 1275 
L 4263 0 
L 3584 0 
L 2988 1197 
Q 2756 1666 2539 1819 
Q 2322 1972 1947 1972 
L 1259 1972 
L 1259 0 
L 628 0 
L 628 4666 
L 2053 4666 
Q 2853 4666 3247 4331 
Q 3641 3997 3641 3322 
Q 3641 2881 3436 2590 
Q 3231 2300 2841 2188 
z
M 1259 4147 
L 1259 2491 
L 2053 2491 
Q 2509 2491 2742 2702 
Q 2975 2913 2975 3322 
Q 2975 3731 2742 3939 
Q 2509 4147 2053 4147 
L 1259 4147 
z
" transform="scale(0.015625)"/>
       <path id="DejaVuSans-25" d="M 4653 2053 
Q 4381 2053 4226 1822 
Q 4072 1591 4072 1178 
Q 4072 772 4226 539 
Q 4381 306 4653 306 
Q 4919 306 5073 539 
Q 5228 772 5228 1178 
Q 5228 1588 5073 1820 
Q 4919 2053 4653 2053 
z
M 4653 2450 
Q 5147 2450 5437 2106 
Q 5728 1763 5728 1178 
Q 5728 594 5436 251 
Q 5144 -91 4653 -91 
Q 4153 -91 3862 251 
Q 3572 594 3572 1178 
Q 3572 1766 3864 2108 
Q 4156 2450 4653 2450 
z
M 1428 4353 
Q 1159 4353 1004 4120 
Q 850 3888 850 3481 
Q 850 3069 1003 2837 
Q 1156 2606 1428 2606 
Q 1700 2606 1854 2837 
Q 2009 3069 2009 3481 
Q 2009 3884 1853 4118 
Q 1697 4353 1428 4353 
z
M 4250 4750 
L 4750 4750 
L 1831 -91 
L 1331 -91 
L 4250 4750 
z
M 1428 4750 
Q 1922 4750 2215 4408 
Q 2509 4066 2509 3481 
Q 2509 2891 2217 2550 
Q 1925 2209 1428 2209 
Q 931 2209 642 2551 
Q 353 2894 353 3481 
Q 353 4063 643 4406 
Q 934 4750 1428 4750 
z
" transform="scale(0.015625)"/>
      </defs>
      <use xlink:href="#DejaVuSans-45"/>
      <use xlink:href="#DejaVuSans-41" x="63.183594"/>
      <use xlink:href="#DejaVuSans-52" x="131.591797"/>
      <use xlink:href="#DejaVuSans-25" x="201.074219"/>
     </g>
    </g>
   </g>
   <g id="patch_75">
    <path d="M 135 315 
L 135 43.2 
" style="fill: none; stroke: #000000; stroke-width: 0.8; stroke-linejoin: miter; stroke-linecap: square"/>
   </g>
   <g id="patch_76">
    <path d="M 972 315 
L 972 43.2 
" style="fill: none; stroke: #000000; stroke-width: 0.8; stroke-linejoin: miter; stroke-linecap: square"/>
   </g>
   <g id="patch_77">
    <path d="M 135 315 
L 972 315 
" style="fill: none; stroke: #000000; stroke-width: 0.8; stroke-linejoin: miter; stroke-linecap: square"/>
   </g>
   <g id="patch_78">
    <path d="M 135 43.2 
L 972 43.2 
" style="fill: none; stroke: #000000; stroke-width: 0.8; stroke-linejoin: miter; stroke-linecap: square"/>
   </g>
   <g id="legend_1">
    <g id="patch_79">
     <path d="M 778.178125 96.034375 
L 965 96.034375 
Q 967 96.034375 967 94.034375 
L 967 50.2 
Q 967 48.2 965 48.2 
L 778.178125 48.2 
Q 776.178125 48.2 776.178125 50.2 
L 776.178125 94.034375 
Q 776.178125 96.034375 778.178125 96.034375 
z
" style="fill: #ffffff; opacity: 0.8; stroke: #cccccc; stroke-linejoin: miter"/>
    </g>
    <g id="patch_80">
     <path d="M 780.178125 59.798437 
L 800.178125 59.798437 
L 800.178125 52.798437 
L 780.178125 52.798437 
z
" style="fill: #0000ff"/>
    </g>
    <g id="text_33">
     <!-- Valor no início do ano -->
     <g transform="translate(808.178125 59.798437)scale(0.1 -0.1)">
      <defs>
       <path id="DejaVuSans-56" d="M 1831 0 
L 50 4666 
L 709 4666 
L 2188 738 
L 3669 4666 
L 4325 4666 
L 2547 0 
L 1831 0 
z
" transform="scale(0.015625)"/>
       <path id="DejaVuSans-61" d="M 2194 1759 
Q 1497 1759 1228 1600 
Q 959 1441 959 1056 
Q 959 750 1161 570 
Q 1363 391 1709 391 
Q 2188 391 2477 730 
Q 2766 1069 2766 1631 
L 2766 1759 
L 2194 1759 
z
M 3341 1997 
L 3341 0 
L 2766 0 
L 2766 531 
Q 2569 213 2275 61 
Q 1981 -91 1556 -91 
Q 1019 -91 701 211 
Q 384 513 384 1019 
Q 384 1609 779 1909 
Q 1175 2209 1959 2209 
L 2766 2209 
L 2766 2266 
Q 2766 2663 2505 2880 
Q 2244 3097 1772 3097 
Q 1472 3097 1187 3025 
Q 903 2953 641 2809 
L 641 3341 
Q 956 3463 1253 3523 
Q 1550 3584 1831 3584 
Q 2591 3584 2966 3190 
Q 3341 2797 3341 1997 
z
" transform="scale(0.015625)"/>
       <path id="DejaVuSans-6c" d="M 603 4863 
L 1178 4863 
L 1178 0 
L 603 0 
L 603 4863 
z
" transform="scale(0.015625)"/>
       <path id="DejaVuSans-6f" d="M 1959 3097 
Q 1497 3097 1228 2736 
Q 959 2375 959 1747 
Q 959 1119 1226 758 
Q 1494 397 1959 397 
Q 2419 397 2687 759 
Q 2956 1122 2956 1747 
Q 2956 2369 2687 2733 
Q 2419 3097 1959 3097 
z
M 1959 3584 
Q 2709 3584 3137 3096 
Q 3566 2609 3566 1747 
Q 3566 888 3137 398 
Q 2709 -91 1959 -91 
Q 1206 -91 779 398 
Q 353 888 353 1747 
Q 353 2609 779 3096 
Q 1206 3584 1959 3584 
z
" transform="scale(0.015625)"/>
       <path id="DejaVuSans-72" d="M 2631 2963 
Q 2534 3019 2420 3045 
Q 2306 3072 2169 3072 
Q 1681 3072 1420 2755 
Q 1159 2438 1159 1844 
L 1159 0 
L 581 0 
L 581 3500 
L 1159 3500 
L 1159 2956 
Q 1341 3275 1631 3429 
Q 1922 3584 2338 3584 
Q 2397 3584 2469 3576 
Q 2541 3569 2628 3553 
L 2631 2963 
z
" transform="scale(0.015625)"/>
       <path id="DejaVuSans-20" transform="scale(0.015625)"/>
       <path id="DejaVuSans-6e" d="M 3513 2113 
L 3513 0 
L 2938 0 
L 2938 2094 
Q 2938 2591 2744 2837 
Q 2550 3084 2163 3084 
Q 1697 3084 1428 2787 
Q 1159 2491 1159 1978 
L 1159 0 
L 581 0 
L 581 3500 
L 1159 3500 
L 1159 2956 
Q 1366 3272 1645 3428 
Q 1925 3584 2291 3584 
Q 2894 3584 3203 3211 
Q 3513 2838 3513 2113 
z
" transform="scale(0.015625)"/>
       <path id="DejaVuSans-69" d="M 603 3500 
L 1178 3500 
L 1178 0 
L 603 0 
L 603 3500 
z
M 603 4863 
L 1178 4863 
L 1178 4134 
L 603 4134 
L 603 4863 
z
" transform="scale(0.015625)"/>
       <path id="DejaVuSans-ed" d="M 1322 5119 
L 1944 5119 
L 926 3944 
L 447 3944 
L 1322 5119 
z
M 603 3500 
L 1178 3500 
L 1178 0 
L 603 0 
L 603 3500 
z
M 891 3584 
L 891 3584 
z
" transform="scale(0.015625)"/>
       <path id="DejaVuSans-63" d="M 3122 3366 
L 3122 2828 
Q 2878 2963 2633 3030 
Q 2388 3097 2138 3097 
Q 1578 3097 1268 2742 
Q 959 2388 959 1747 
Q 959 1106 1268 751 
Q 1578 397 2138 397 
Q 2388 397 2633 464 
Q 2878 531 3122 666 
L 3122 134 
Q 2881 22 2623 -34 
Q 2366 -91 2075 -91 
Q 1284 -91 818 406 
Q 353 903 353 1747 
Q 353 2603 823 3093 
Q 1294 3584 2113 3584 
Q 2378 3584 2631 3529 
Q 2884 3475 3122 3366 
z
" transform="scale(0.015625)"/>
       <path id="DejaVuSans-64" d="M 2906 2969 
L 2906 4863 
L 3481 4863 
L 3481 0 
L 2906 0 
L 2906 525 
Q 2725 213 2448 61 
Q 2172 -91 1784 -91 
Q 1150 -91 751 415 
Q 353 922 353 1747 
Q 353 2572 751 3078 
Q 1150 3584 1784 3584 
Q 2172 3584 2448 3432 
Q 2725 3281 2906 2969 
z
M 947 1747 
Q 947 1113 1208 752 
Q 1469 391 1925 391 
Q 2381 391 2643 752 
Q 2906 1113 2906 1747 
Q 2906 2381 2643 2742 
Q 2381 3103 1925 3103 
Q 1469 3103 1208 2742 
Q 947 2381 947 1747 
z
" transform="scale(0.015625)"/>
      </defs>
      <use xlink:href="#DejaVuSans-56"/>
      <use xlink:href="#DejaVuSans-61" x="60.658203"/>
      <use xlink:href="#DejaVuSans-6c" x="121.9375"/>
      <use xlink:href="#DejaVuSans-6f" x="149.720703"/>
      <use xlink:href="#DejaVuSans-72" x="210.902344"/>
      <use xlink:href="#DejaVuSans-20" x="252.015625"/>
      <use xlink:href="#DejaVuSans-6e" x="283.802734"/>
      <use xlink:href="#DejaVuSans-6f" x="347.181641"/>
      <use xlink:href="#DejaVuSans-20" x="408.363281"/>
      <use xlink:href="#DejaVuSans-69" x="440.150391"/>
      <use xlink:href="#DejaVuSans-6e" x="467.933594"/>
      <use xlink:href="#DejaVuSans-ed" x="531.3125"/>
      <use xlink:href="#DejaVuSans-63" x="559.095703"/>
      <use xlink:href="#DejaVuSans-69" x="614.076172"/>
      <use xlink:href="#DejaVuSans-6f" x="641.859375"/>
      <use xlink:href="#DejaVuSans-20" x="703.041016"/>
      <use xlink:href="#DejaVuSans-64" x="734.828125"/>
      <use xlink:href="#DejaVuSans-6f" x="798.304688"/>
      <use xlink:href="#DejaVuSans-20" x="859.486328"/>
      <use xlink:href="#DejaVuSans-61" x="891.273438"/>
      <use xlink:href="#DejaVuSans-6e" x="952.552734"/>
      <use xlink:href="#DejaVuSans-6f" x="1015.931641"/>
     </g>
    </g>
    <g id="patch_81">
     <path d="M 780.178125 74.876562 
L 800.178125 74.876562 
L 800.178125 67.876562 
L 780.178125 67.876562 
z
" style="fill: #008000"/>
    </g>
    <g id="text_34">
     <!-- Recuperação dos reservatórios -->
     <g transform="translate(808.178125 74.876562)scale(0.1 -0.1)">
      <defs>
       <path id="DejaVuSans-65" d="M 3597 1894 
L 3597 1613 
L 953 1613 
Q 991 1019 1311 708 
Q 1631 397 2203 397 
Q 2534 397 2845 478 
Q 3156 559 3463 722 
L 3463 178 
Q 3153 47 2828 -22 
Q 2503 -91 2169 -91 
Q 1331 -91 842 396 
Q 353 884 353 1716 
Q 353 2575 817 3079 
Q 1281 3584 2069 3584 
Q 2775 3584 3186 3129 
Q 3597 2675 3597 1894 
z
M 3022 2063 
Q 3016 2534 2758 2815 
Q 2500 3097 2075 3097 
Q 1594 3097 1305 2825 
Q 1016 2553 972 2059 
L 3022 2063 
z
" transform="scale(0.015625)"/>
       <path id="DejaVuSans-75" d="M 544 1381 
L 544 3500 
L 1119 3500 
L 1119 1403 
Q 1119 906 1312 657 
Q 1506 409 1894 409 
Q 2359 409 2629 706 
Q 2900 1003 2900 1516 
L 2900 3500 
L 3475 3500 
L 3475 0 
L 2900 0 
L 2900 538 
Q 2691 219 2414 64 
Q 2138 -91 1772 -91 
Q 1169 -91 856 284 
Q 544 659 544 1381 
z
M 1991 3584 
L 1991 3584 
z
" transform="scale(0.015625)"/>
       <path id="DejaVuSans-70" d="M 1159 525 
L 1159 -1331 
L 581 -1331 
L 581 3500 
L 1159 3500 
L 1159 2969 
Q 1341 3281 1617 3432 
Q 1894 3584 2278 3584 
Q 2916 3584 3314 3078 
Q 3713 2572 3713 1747 
Q 3713 922 3314 415 
Q 2916 -91 2278 -91 
Q 1894 -91 1617 61 
Q 1341 213 1159 525 
z
M 3116 1747 
Q 3116 2381 2855 2742 
Q 2594 3103 2138 3103 
Q 1681 3103 1420 2742 
Q 1159 2381 1159 1747 
Q 1159 1113 1420 752 
Q 1681 391 2138 391 
Q 2594 391 2855 752 
Q 3116 1113 3116 1747 
z
" transform="scale(0.015625)"/>
       <path id="DejaVuSans-e7" d="M 3122 3366 
L 3122 2828 
Q 2878 2963 2633 3030 
Q 2388 3097 2138 3097 
Q 1578 3097 1268 2742 
Q 959 2388 959 1747 
Q 959 1106 1268 751 
Q 1578 397 2138 397 
Q 2388 397 2633 464 
Q 2878 531 3122 666 
L 3122 134 
Q 2881 22 2623 -34 
Q 2366 -91 2075 -91 
Q 1284 -91 818 406 
Q 353 903 353 1747 
Q 353 2603 823 3093 
Q 1294 3584 2113 3584 
Q 2378 3584 2631 3529 
Q 2884 3475 3122 3366 
z
M 2311 0 
Q 2482 -194 2566 -358 
Q 2651 -522 2651 -672 
Q 2651 -950 2463 -1092 
Q 2276 -1234 1907 -1234 
Q 1764 -1234 1628 -1215 
Q 1492 -1197 1357 -1159 
L 1357 -750 
Q 1464 -803 1579 -826 
Q 1695 -850 1842 -850 
Q 2026 -850 2120 -775 
Q 2214 -700 2214 -556 
Q 2214 -463 2146 -327 
Q 2079 -191 1939 0 
L 2311 0 
z
" transform="scale(0.015625)"/>
       <path id="DejaVuSans-e3" d="M 2194 1759 
Q 1497 1759 1228 1600 
Q 959 1441 959 1056 
Q 959 750 1161 570 
Q 1363 391 1709 391 
Q 2188 391 2477 730 
Q 2766 1069 2766 1631 
L 2766 1759 
L 2194 1759 
z
M 3341 1997 
L 3341 0 
L 2766 0 
L 2766 531 
Q 2569 213 2275 61 
Q 1981 -91 1556 -91 
Q 1019 -91 701 211 
Q 384 513 384 1019 
Q 384 1609 779 1909 
Q 1175 2209 1959 2209 
L 2766 2209 
L 2766 2266 
Q 2766 2663 2505 2880 
Q 2244 3097 1772 3097 
Q 1472 3097 1187 3025 
Q 903 2953 641 2809 
L 641 3341 
Q 956 3463 1253 3523 
Q 1550 3584 1831 3584 
Q 2591 3584 2966 3190 
Q 3341 2797 3341 1997 
z
M 1844 4281 
L 1665 4453 
Q 1597 4516 1545 4545 
Q 1494 4575 1453 4575 
Q 1334 4575 1278 4461 
Q 1222 4347 1215 4091 
L 825 4091 
Q 831 4513 990 4742 
Q 1150 4972 1434 4972 
Q 1553 4972 1653 4928 
Q 1753 4884 1869 4781 
L 2047 4609 
Q 2115 4547 2167 4517 
Q 2219 4488 2259 4488 
Q 2378 4488 2434 4602 
Q 2490 4716 2497 4972 
L 2887 4972 
Q 2881 4550 2721 4320 
Q 2562 4091 2278 4091 
Q 2159 4091 2059 4134 
Q 1959 4178 1844 4281 
z
" transform="scale(0.015625)"/>
       <path id="DejaVuSans-73" d="M 2834 3397 
L 2834 2853 
Q 2591 2978 2328 3040 
Q 2066 3103 1784 3103 
Q 1356 3103 1142 2972 
Q 928 2841 928 2578 
Q 928 2378 1081 2264 
Q 1234 2150 1697 2047 
L 1894 2003 
Q 2506 1872 2764 1633 
Q 3022 1394 3022 966 
Q 3022 478 2636 193 
Q 2250 -91 1575 -91 
Q 1294 -91 989 -36 
Q 684 19 347 128 
L 347 722 
Q 666 556 975 473 
Q 1284 391 1588 391 
Q 1994 391 2212 530 
Q 2431 669 2431 922 
Q 2431 1156 2273 1281 
Q 2116 1406 1581 1522 
L 1381 1569 
Q 847 1681 609 1914 
Q 372 2147 372 2553 
Q 372 3047 722 3315 
Q 1072 3584 1716 3584 
Q 2034 3584 2315 3537 
Q 2597 3491 2834 3397 
z
" transform="scale(0.015625)"/>
       <path id="DejaVuSans-76" d="M 191 3500 
L 800 3500 
L 1894 563 
L 2988 3500 
L 3597 3500 
L 2284 0 
L 1503 0 
L 191 3500 
z
" transform="scale(0.015625)"/>
       <path id="DejaVuSans-74" d="M 1172 4494 
L 1172 3500 
L 2356 3500 
L 2356 3053 
L 1172 3053 
L 1172 1153 
Q 1172 725 1289 603 
Q 1406 481 1766 481 
L 2356 481 
L 2356 0 
L 1766 0 
Q 1100 0 847 248 
Q 594 497 594 1153 
L 594 3053 
L 172 3053 
L 172 3500 
L 594 3500 
L 594 4494 
L 1172 4494 
z
" transform="scale(0.015625)"/>
       <path id="DejaVuSans-f3" d="M 1959 3097 
Q 1497 3097 1228 2736 
Q 959 2375 959 1747 
Q 959 1119 1226 758 
Q 1494 397 1959 397 
Q 2419 397 2687 759 
Q 2956 1122 2956 1747 
Q 2956 2369 2687 2733 
Q 2419 3097 1959 3097 
z
M 1959 3584 
Q 2709 3584 3137 3096 
Q 3566 2609 3566 1747 
Q 3566 888 3137 398 
Q 2709 -91 1959 -91 
Q 1206 -91 779 398 
Q 353 888 353 1747 
Q 353 2609 779 3096 
Q 1206 3584 1959 3584 
z
M 2394 5119 
L 3016 5119 
L 1998 3944 
L 1519 3944 
L 2394 5119 
z
" transform="scale(0.015625)"/>
      </defs>
      <use xlink:href="#DejaVuSans-52"/>
      <use xlink:href="#DejaVuSans-65" x="64.982422"/>
      <use xlink:href="#DejaVuSans-63" x="126.505859"/>
      <use xlink:href="#DejaVuSans-75" x="181.486328"/>
      <use xlink:href="#DejaVuSans-70" x="244.865234"/>
      <use xlink:href="#DejaVuSans-65" x="308.341797"/>
      <use xlink:href="#DejaVuSans-72" x="369.865234"/>
      <use xlink:href="#DejaVuSans-61" x="410.978516"/>
      <use xlink:href="#DejaVuSans-e7" x="472.257812"/>
      <use xlink:href="#DejaVuSans-e3" x="527.238281"/>
      <use xlink:href="#DejaVuSans-6f" x="588.517578"/>
      <use xlink:href="#DejaVuSans-20" x="649.699219"/>
      <use xlink:href="#DejaVuSans-64" x="681.486328"/>
      <use xlink:href="#DejaVuSans-6f" x="744.962891"/>
      <use xlink:href="#DejaVuSans-73" x="806.144531"/>
      <use xlink:href="#DejaVuSans-20" x="858.244141"/>
      <use xlink:href="#DejaVuSans-72" x="890.03125"/>
      <use xlink:href="#DejaVuSans-65" x="928.894531"/>
      <use xlink:href="#DejaVuSans-73" x="990.417969"/>
      <use xlink:href="#DejaVuSans-65" x="1042.517578"/>
      <use xlink:href="#DejaVuSans-72" x="1104.041016"/>
      <use xlink:href="#DejaVuSans-76" x="1145.154297"/>
      <use xlink:href="#DejaVuSans-61" x="1204.333984"/>
      <use xlink:href="#DejaVuSans-74" x="1265.613281"/>
      <use xlink:href="#DejaVuSans-f3" x="1304.822266"/>
      <use xlink:href="#DejaVuSans-72" x="1366.003906"/>
      <use xlink:href="#DejaVuSans-69" x="1407.117188"/>
      <use xlink:href="#DejaVuSans-6f" x="1434.900391"/>
      <use xlink:href="#DejaVuSans-73" x="1496.082031"/>
     </g>
    </g>
    <g id="patch_82">
     <path d="M 780.178125 89.954687 
L 800.178125 89.954687 
L 800.178125 82.954687 
L 780.178125 82.954687 
z
" style="fill: #ff0000"/>
    </g>
    <g id="text_35">
     <!-- Depleção dos reservatórios -->
     <g transform="translate(808.178125 89.954687)scale(0.1 -0.1)">
      <defs>
       <path id="DejaVuSans-44" d="M 1259 4147 
L 1259 519 
L 2022 519 
Q 2988 519 3436 956 
Q 3884 1394 3884 2338 
Q 3884 3275 3436 3711 
Q 2988 4147 2022 4147 
L 1259 4147 
z
M 628 4666 
L 1925 4666 
Q 3281 4666 3915 4102 
Q 4550 3538 4550 2338 
Q 4550 1131 3912 565 
Q 3275 0 1925 0 
L 628 0 
L 628 4666 
z
" transform="scale(0.015625)"/>
      </defs>
      <use xlink:href="#DejaVuSans-44"/>
      <use xlink:href="#DejaVuSans-65" x="77.001953"/>
      <use xlink:href="#DejaVuSans-70" x="138.525391"/>
      <use xlink:href="#DejaVuSans-6c" x="202.001953"/>
      <use xlink:href="#DejaVuSans-65" x="229.785156"/>
      <use xlink:href="#DejaVuSans-e7" x="291.308594"/>
      <use xlink:href="#DejaVuSans-e3" x="346.289062"/>
      <use xlink:href="#DejaVuSans-6f" x="407.568359"/>
      <use xlink:href="#DejaVuSans-20" x="468.75"/>
      <use xlink:href="#DejaVuSans-64" x="500.537109"/>
      <use xlink:href="#DejaVuSans-6f" x="564.013672"/>
      <use xlink:href="#DejaVuSans-73" x="625.195312"/>
      <use xlink:href="#DejaVuSans-20" x="677.294922"/>
      <use xlink:href="#DejaVuSans-72" x="709.082031"/>
      <use xlink:href="#DejaVuSans-65" x="747.945312"/>
      <use xlink:href="#DejaVuSans-73" x="809.46875"/>
      <use xlink:href="#DejaVuSans-65" x="861.568359"/>
      <use xlink:href="#DejaVuSans-72" x="923.091797"/>
      <use xlink:href="#DejaVuSans-76" x="964.205078"/>
      <use xlink:href="#DejaVuSans-61" x="1023.384766"/>
      <use xlink:href="#DejaVuSans-74" x="1084.664062"/>
      <use xlink:href="#DejaVuSans-f3" x="1123.873047"/>
      <use xlink:href="#DejaVuSans-72" x="1185.054688"/>
      <use xlink:href="#DejaVuSans-69" x="1226.167969"/>
      <use xlink:href="#DejaVuSans-6f" x="1253.951172"/>
      <use xlink:href="#DejaVuSans-73" x="1315.132812"/>
     </g>
    </g>
   </g>
  </g>
 </g>
 <defs>
  <clipPath id="pbfcf77af1e">
   <rect x="135" y="43.2" width="837" height="271.8"/>
  </clipPath>
 </defs>
</svg>
