<?xml version="1.0" encoding="utf-8" standalone="no"?>
<!DOCTYPE svg PUBLIC "-//W3C//DTD SVG 1.1//EN"
  "http://www.w3.org/Graphics/SVG/1.1/DTD/svg11.dtd">
<svg xmlns:xlink="http://www.w3.org/1999/xlink" width="1080pt" height="360pt" viewBox="0 0 1080 360" xmlns="http://www.w3.org/2000/svg" version="1.1">
 <metadata>
  <rdf:RDF xmlns:dc="http://purl.org/dc/elements/1.1/" xmlns:cc="http://creativecommons.org/ns#" xmlns:rdf="http://www.w3.org/1999/02/22-rdf-syntax-ns#">
   <cc:Work>
    <dc:type rdf:resource="http://purl.org/dc/dcmitype/StillImage"/>
    <dc:date>2023-04-10T09:45:57.161747</dc:date>
    <dc:format>image/svg+xml</dc:format>
    <dc:creator>
     <cc:Agent>
      <dc:title>Matplotlib v3.5.2, https://matplotlib.org/</dc:title>
     </cc:Agent>
    </dc:creator>
   </cc:Work>
  </rdf:RDF>
 </metadata>
 <defs>
  <style type="text/css">*{stroke-linejoin: round; stroke-linecap: butt}</style>
 </defs>
 <g id="figure_1">
  <g id="patch_1">
   <path d="M 0 360 
L 1080 360 
L 1080 0 
L 0 0 
L 0 360 
z
" style="fill: none"/>
  </g>
  <g id="axes_1">
   <g id="patch_2">
    <path d="M 135 315 
L 972 315 
L 972 43.2 
L 135 43.2 
z
" style="fill: #ffffff"/>
   </g>
   <g id="matplotlib.axis_1">
    <g id="xtick_1">
     <g id="line2d_1">
      <defs>
       <path id="m1804591763" d="M 0 0 
L 0 3.5 
" style="stroke: #000000; stroke-width: 0.8"/>
      </defs>
      <g>
       <use xlink:href="#m1804591763" x="135" y="315" style="stroke: #000000; stroke-width: 0.8"/>
      </g>
     </g>
     <g id="text_1">
      <!-- 2000 -->
      <g transform="translate(122.275 329.598437)scale(0.1 -0.1)">
       <defs>
        <path id="DejaVuSans-32" d="M 1228 531 
L 3431 531 
L 3431 0 
L 469 0 
L 469 531 
Q 828 903 1448 1529 
Q 2069 2156 2228 2338 
Q 2531 2678 2651 2914 
Q 2772 3150 2772 3378 
Q 2772 3750 2511 3984 
Q 2250 4219 1831 4219 
Q 1534 4219 1204 4116 
Q 875 4013 500 3803 
L 500 4441 
Q 881 4594 1212 4672 
Q 1544 4750 1819 4750 
Q 2544 4750 2975 4387 
Q 3406 4025 3406 3419 
Q 3406 3131 3298 2873 
Q 3191 2616 2906 2266 
Q 2828 2175 2409 1742 
Q 1991 1309 1228 531 
z
" transform="scale(0.015625)"/>
        <path id="DejaVuSans-30" d="M 2034 4250 
Q 1547 4250 1301 3770 
Q 1056 3291 1056 2328 
Q 1056 1369 1301 889 
Q 1547 409 2034 409 
Q 2525 409 2770 889 
Q 3016 1369 3016 2328 
Q 3016 3291 2770 3770 
Q 2525 4250 2034 4250 
z
M 2034 4750 
Q 2819 4750 3233 4129 
Q 3647 3509 3647 2328 
Q 3647 1150 3233 529 
Q 2819 -91 2034 -91 
Q 1250 -91 836 529 
Q 422 1150 422 2328 
Q 422 3509 836 4129 
Q 1250 4750 2034 4750 
z
" transform="scale(0.015625)"/>
       </defs>
       <use xlink:href="#DejaVuSans-32"/>
       <use xlink:href="#DejaVuSans-30" x="63.623047"/>
       <use xlink:href="#DejaVuSans-30" x="127.246094"/>
       <use xlink:href="#DejaVuSans-30" x="190.869141"/>
      </g>
     </g>
    </g>
    <g id="xtick_2">
     <g id="line2d_2">
      <g>
       <use xlink:href="#m1804591763" x="315.096455" y="315" style="stroke: #000000; stroke-width: 0.8"/>
      </g>
     </g>
     <g id="text_2">
      <!-- 2005 -->
      <g transform="translate(302.371455 329.598437)scale(0.1 -0.1)">
       <defs>
        <path id="DejaVuSans-35" d="M 691 4666 
L 3169 4666 
L 3169 4134 
L 1269 4134 
L 1269 2991 
Q 1406 3038 1543 3061 
Q 1681 3084 1819 3084 
Q 2600 3084 3056 2656 
Q 3513 2228 3513 1497 
Q 3513 744 3044 326 
Q 2575 -91 1722 -91 
Q 1428 -91 1123 -41 
Q 819 9 494 109 
L 494 744 
Q 775 591 1075 516 
Q 1375 441 1709 441 
Q 2250 441 2565 725 
Q 2881 1009 2881 1497 
Q 2881 1984 2565 2268 
Q 2250 2553 1709 2553 
Q 1456 2553 1204 2497 
Q 953 2441 691 2322 
L 691 4666 
z
" transform="scale(0.015625)"/>
       </defs>
       <use xlink:href="#DejaVuSans-32"/>
       <use xlink:href="#DejaVuSans-30" x="63.623047"/>
       <use xlink:href="#DejaVuSans-30" x="127.246094"/>
       <use xlink:href="#DejaVuSans-35" x="190.869141"/>
      </g>
     </g>
    </g>
    <g id="xtick_3">
     <g id="line2d_3">
      <g>
       <use xlink:href="#m1804591763" x="495.094335" y="315" style="stroke: #000000; stroke-width: 0.8"/>
      </g>
     </g>
     <g id="text_3">
      <!-- 2010 -->
      <g transform="translate(482.369335 329.598437)scale(0.1 -0.1)">
       <defs>
        <path id="DejaVuSans-31" d="M 794 531 
L 1825 531 
L 1825 4091 
L 703 3866 
L 703 4441 
L 1819 4666 
L 2450 4666 
L 2450 531 
L 3481 531 
L 3481 0 
L 794 0 
L 794 531 
z
" transform="scale(0.015625)"/>
       </defs>
       <use xlink:href="#DejaVuSans-32"/>
       <use xlink:href="#DejaVuSans-30" x="63.623047"/>
       <use xlink:href="#DejaVuSans-31" x="127.246094"/>
       <use xlink:href="#DejaVuSans-30" x="190.869141"/>
      </g>
     </g>
    </g>
    <g id="xtick_4">
     <g id="line2d_4">
      <g>
       <use xlink:href="#m1804591763" x="675.092215" y="315" style="stroke: #000000; stroke-width: 0.8"/>
      </g>
     </g>
     <g id="text_4">
      <!-- 2015 -->
      <g transform="translate(662.367215 329.598437)scale(0.1 -0.1)">
       <use xlink:href="#DejaVuSans-32"/>
       <use xlink:href="#DejaVuSans-30" x="63.623047"/>
       <use xlink:href="#DejaVuSans-31" x="127.246094"/>
       <use xlink:href="#DejaVuSans-35" x="190.869141"/>
      </g>
     </g>
    </g>
    <g id="xtick_5">
     <g id="line2d_5">
      <g>
       <use xlink:href="#m1804591763" x="855.090095" y="315" style="stroke: #000000; stroke-width: 0.8"/>
      </g>
     </g>
     <g id="text_5">
      <!-- 2020 -->
      <g transform="translate(842.365095 329.598437)scale(0.1 -0.1)">
       <use xlink:href="#DejaVuSans-32"/>
       <use xlink:href="#DejaVuSans-30" x="63.623047"/>
       <use xlink:href="#DejaVuSans-32" x="127.246094"/>
       <use xlink:href="#DejaVuSans-30" x="190.869141"/>
      </g>
     </g>
    </g>
    <g id="xtick_6">
     <g id="line2d_6">
      <g>
       <use xlink:href="#m1804591763" x="972" y="315" style="stroke: #000000; stroke-width: 0.8"/>
      </g>
     </g>
    </g>
    <g id="xtick_7">
     <g id="line2d_7">
      <defs>
       <path id="mc80c8fba42" d="M 0 0 
L 0 2 
" style="stroke: #000000; stroke-width: 0.6"/>
      </defs>
      <g>
       <use xlink:href="#mc80c8fba42" x="171.078436" y="315" style="stroke: #000000; stroke-width: 0.6"/>
      </g>
     </g>
    </g>
    <g id="xtick_8">
     <g id="line2d_8">
      <g>
       <use xlink:href="#mc80c8fba42" x="207.058297" y="315" style="stroke: #000000; stroke-width: 0.6"/>
      </g>
     </g>
    </g>
    <g id="xtick_9">
     <g id="line2d_9">
      <g>
       <use xlink:href="#mc80c8fba42" x="243.038158" y="315" style="stroke: #000000; stroke-width: 0.6"/>
      </g>
     </g>
    </g>
    <g id="xtick_10">
     <g id="line2d_10">
      <g>
       <use xlink:href="#mc80c8fba42" x="279.018019" y="315" style="stroke: #000000; stroke-width: 0.6"/>
      </g>
     </g>
    </g>
    <g id="xtick_11">
     <g id="line2d_11">
      <g>
       <use xlink:href="#mc80c8fba42" x="351.076316" y="315" style="stroke: #000000; stroke-width: 0.6"/>
      </g>
     </g>
    </g>
    <g id="xtick_12">
     <g id="line2d_12">
      <g>
       <use xlink:href="#mc80c8fba42" x="387.056177" y="315" style="stroke: #000000; stroke-width: 0.6"/>
      </g>
     </g>
    </g>
    <g id="xtick_13">
     <g id="line2d_13">
      <g>
       <use xlink:href="#mc80c8fba42" x="423.036038" y="315" style="stroke: #000000; stroke-width: 0.6"/>
      </g>
     </g>
    </g>
    <g id="xtick_14">
     <g id="line2d_14">
      <g>
       <use xlink:href="#mc80c8fba42" x="459.114474" y="315" style="stroke: #000000; stroke-width: 0.6"/>
      </g>
     </g>
    </g>
    <g id="xtick_15">
     <g id="line2d_15">
      <g>
       <use xlink:href="#mc80c8fba42" x="531.074196" y="315" style="stroke: #000000; stroke-width: 0.6"/>
      </g>
     </g>
    </g>
    <g id="xtick_16">
     <g id="line2d_16">
      <g>
       <use xlink:href="#mc80c8fba42" x="567.054057" y="315" style="stroke: #000000; stroke-width: 0.6"/>
      </g>
     </g>
    </g>
    <g id="xtick_17">
     <g id="line2d_17">
      <g>
       <use xlink:href="#mc80c8fba42" x="603.132493" y="315" style="stroke: #000000; stroke-width: 0.6"/>
      </g>
     </g>
    </g>
    <g id="xtick_18">
     <g id="line2d_18">
      <g>
       <use xlink:href="#mc80c8fba42" x="639.112354" y="315" style="stroke: #000000; stroke-width: 0.6"/>
      </g>
     </g>
    </g>
    <g id="xtick_19">
     <g id="line2d_19">
      <g>
       <use xlink:href="#mc80c8fba42" x="711.072076" y="315" style="stroke: #000000; stroke-width: 0.6"/>
      </g>
     </g>
    </g>
    <g id="xtick_20">
     <g id="line2d_20">
      <g>
       <use xlink:href="#mc80c8fba42" x="747.150512" y="315" style="stroke: #000000; stroke-width: 0.6"/>
      </g>
     </g>
    </g>
    <g id="xtick_21">
     <g id="line2d_21">
      <g>
       <use xlink:href="#mc80c8fba42" x="783.130373" y="315" style="stroke: #000000; stroke-width: 0.6"/>
      </g>
     </g>
    </g>
    <g id="xtick_22">
     <g id="line2d_22">
      <g>
       <use xlink:href="#mc80c8fba42" x="819.110234" y="315" style="stroke: #000000; stroke-width: 0.6"/>
      </g>
     </g>
    </g>
    <g id="xtick_23">
     <g id="line2d_23">
      <g>
       <use xlink:href="#mc80c8fba42" x="891.168531" y="315" style="stroke: #000000; stroke-width: 0.6"/>
      </g>
     </g>
    </g>
    <g id="xtick_24">
     <g id="line2d_24">
      <g>
       <use xlink:href="#mc80c8fba42" x="927.148392" y="315" style="stroke: #000000; stroke-width: 0.6"/>
      </g>
     </g>
    </g>
    <g id="xtick_25">
     <g id="line2d_25">
      <g>
       <use xlink:href="#mc80c8fba42" x="963.128253" y="315" style="stroke: #000000; stroke-width: 0.6"/>
      </g>
     </g>
    </g>
   </g>
   <g id="matplotlib.axis_2">
    <g id="ytick_1">
     <g id="line2d_26">
      <defs>
       <path id="m5321b1f4d8" d="M 0 0 
L -3.5 0 
" style="stroke: #000000; stroke-width: 0.8"/>
      </defs>
      <g>
       <use xlink:href="#m5321b1f4d8" x="135" y="295.127877" style="stroke: #000000; stroke-width: 0.8"/>
      </g>
     </g>
     <g id="text_6">
      <!-- 20 -->
      <g transform="translate(115.275 298.927095)scale(0.1 -0.1)">
       <use xlink:href="#DejaVuSans-32"/>
       <use xlink:href="#DejaVuSans-30" x="63.623047"/>
      </g>
     </g>
    </g>
    <g id="ytick_2">
     <g id="line2d_27">
      <g>
       <use xlink:href="#m5321b1f4d8" x="135" y="260.83978" style="stroke: #000000; stroke-width: 0.8"/>
      </g>
     </g>
     <g id="text_7">
      <!-- 30 -->
      <g transform="translate(115.275 264.638999)scale(0.1 -0.1)">
       <defs>
        <path id="DejaVuSans-33" d="M 2597 2516 
Q 3050 2419 3304 2112 
Q 3559 1806 3559 1356 
Q 3559 666 3084 287 
Q 2609 -91 1734 -91 
Q 1441 -91 1130 -33 
Q 819 25 488 141 
L 488 750 
Q 750 597 1062 519 
Q 1375 441 1716 441 
Q 2309 441 2620 675 
Q 2931 909 2931 1356 
Q 2931 1769 2642 2001 
Q 2353 2234 1838 2234 
L 1294 2234 
L 1294 2753 
L 1863 2753 
Q 2328 2753 2575 2939 
Q 2822 3125 2822 3475 
Q 2822 3834 2567 4026 
Q 2313 4219 1838 4219 
Q 1578 4219 1281 4162 
Q 984 4106 628 3988 
L 628 4550 
Q 988 4650 1302 4700 
Q 1616 4750 1894 4750 
Q 2613 4750 3031 4423 
Q 3450 4097 3450 3541 
Q 3450 3153 3228 2886 
Q 3006 2619 2597 2516 
z
" transform="scale(0.015625)"/>
       </defs>
       <use xlink:href="#DejaVuSans-33"/>
       <use xlink:href="#DejaVuSans-30" x="63.623047"/>
      </g>
     </g>
    </g>
    <g id="ytick_3">
     <g id="line2d_28">
      <g>
       <use xlink:href="#m5321b1f4d8" x="135" y="226.551683" style="stroke: #000000; stroke-width: 0.8"/>
      </g>
     </g>
     <g id="text_8">
      <!-- 40 -->
      <g transform="translate(115.275 230.350902)scale(0.1 -0.1)">
       <defs>
        <path id="DejaVuSans-34" d="M 2419 4116 
L 825 1625 
L 2419 1625 
L 2419 4116 
z
M 2253 4666 
L 3047 4666 
L 3047 1625 
L 3713 1625 
L 3713 1100 
L 3047 1100 
L 3047 0 
L 2419 0 
L 2419 1100 
L 313 1100 
L 313 1709 
L 2253 4666 
z
" transform="scale(0.015625)"/>
       </defs>
       <use xlink:href="#DejaVuSans-34"/>
       <use xlink:href="#DejaVuSans-30" x="63.623047"/>
      </g>
     </g>
    </g>
    <g id="ytick_4">
     <g id="line2d_29">
      <g>
       <use xlink:href="#m5321b1f4d8" x="135" y="192.263586" style="stroke: #000000; stroke-width: 0.8"/>
      </g>
     </g>
     <g id="text_9">
      <!-- 50 -->
      <g transform="translate(115.275 196.062805)scale(0.1 -0.1)">
       <use xlink:href="#DejaVuSans-35"/>
       <use xlink:href="#DejaVuSans-30" x="63.623047"/>
      </g>
     </g>
    </g>
    <g id="ytick_5">
     <g id="line2d_30">
      <g>
       <use xlink:href="#m5321b1f4d8" x="135" y="157.975489" style="stroke: #000000; stroke-width: 0.8"/>
      </g>
     </g>
     <g id="text_10">
      <!-- 60 -->
      <g transform="translate(115.275 161.774708)scale(0.1 -0.1)">
       <defs>
        <path id="DejaVuSans-36" d="M 2113 2584 
Q 1688 2584 1439 2293 
Q 1191 2003 1191 1497 
Q 1191 994 1439 701 
Q 1688 409 2113 409 
Q 2538 409 2786 701 
Q 3034 994 3034 1497 
Q 3034 2003 2786 2293 
Q 2538 2584 2113 2584 
z
M 3366 4563 
L 3366 3988 
Q 3128 4100 2886 4159 
Q 2644 4219 2406 4219 
Q 1781 4219 1451 3797 
Q 1122 3375 1075 2522 
Q 1259 2794 1537 2939 
Q 1816 3084 2150 3084 
Q 2853 3084 3261 2657 
Q 3669 2231 3669 1497 
Q 3669 778 3244 343 
Q 2819 -91 2113 -91 
Q 1303 -91 875 529 
Q 447 1150 447 2328 
Q 447 3434 972 4092 
Q 1497 4750 2381 4750 
Q 2619 4750 2861 4703 
Q 3103 4656 3366 4563 
z
" transform="scale(0.015625)"/>
       </defs>
       <use xlink:href="#DejaVuSans-36"/>
       <use xlink:href="#DejaVuSans-30" x="63.623047"/>
      </g>
     </g>
    </g>
    <g id="ytick_6">
     <g id="line2d_31">
      <g>
       <use xlink:href="#m5321b1f4d8" x="135" y="123.687392" style="stroke: #000000; stroke-width: 0.8"/>
      </g>
     </g>
     <g id="text_11">
      <!-- 70 -->
      <g transform="translate(115.275 127.486611)scale(0.1 -0.1)">
       <defs>
        <path id="DejaVuSans-37" d="M 525 4666 
L 3525 4666 
L 3525 4397 
L 1831 0 
L 1172 0 
L 2766 4134 
L 525 4134 
L 525 4666 
z
" transform="scale(0.015625)"/>
       </defs>
       <use xlink:href="#DejaVuSans-37"/>
       <use xlink:href="#DejaVuSans-30" x="63.623047"/>
      </g>
     </g>
    </g>
    <g id="ytick_7">
     <g id="line2d_32">
      <g>
       <use xlink:href="#m5321b1f4d8" x="135" y="89.399296" style="stroke: #000000; stroke-width: 0.8"/>
      </g>
     </g>
     <g id="text_12">
      <!-- 80 -->
      <g transform="translate(115.275 93.198514)scale(0.1 -0.1)">
       <defs>
        <path id="DejaVuSans-38" d="M 2034 2216 
Q 1584 2216 1326 1975 
Q 1069 1734 1069 1313 
Q 1069 891 1326 650 
Q 1584 409 2034 409 
Q 2484 409 2743 651 
Q 3003 894 3003 1313 
Q 3003 1734 2745 1975 
Q 2488 2216 2034 2216 
z
M 1403 2484 
Q 997 2584 770 2862 
Q 544 3141 544 3541 
Q 544 4100 942 4425 
Q 1341 4750 2034 4750 
Q 2731 4750 3128 4425 
Q 3525 4100 3525 3541 
Q 3525 3141 3298 2862 
Q 3072 2584 2669 2484 
Q 3125 2378 3379 2068 
Q 3634 1759 3634 1313 
Q 3634 634 3220 271 
Q 2806 -91 2034 -91 
Q 1263 -91 848 271 
Q 434 634 434 1313 
Q 434 1759 690 2068 
Q 947 2378 1403 2484 
z
M 1172 3481 
Q 1172 3119 1398 2916 
Q 1625 2713 2034 2713 
Q 2441 2713 2670 2916 
Q 2900 3119 2900 3481 
Q 2900 3844 2670 4047 
Q 2441 4250 2034 4250 
Q 1625 4250 1398 4047 
Q 1172 3844 1172 3481 
z
" transform="scale(0.015625)"/>
       </defs>
       <use xlink:href="#DejaVuSans-38"/>
       <use xlink:href="#DejaVuSans-30" x="63.623047"/>
      </g>
     </g>
    </g>
    <g id="ytick_8">
     <g id="line2d_33">
      <g>
       <use xlink:href="#m5321b1f4d8" x="135" y="55.111199" style="stroke: #000000; stroke-width: 0.8"/>
      </g>
     </g>
     <g id="text_13">
      <!-- 90 -->
      <g transform="translate(115.275 58.910417)scale(0.1 -0.1)">
       <defs>
        <path id="DejaVuSans-39" d="M 703 97 
L 703 672 
Q 941 559 1184 500 
Q 1428 441 1663 441 
Q 2288 441 2617 861 
Q 2947 1281 2994 2138 
Q 2813 1869 2534 1725 
Q 2256 1581 1919 1581 
Q 1219 1581 811 2004 
Q 403 2428 403 3163 
Q 403 3881 828 4315 
Q 1253 4750 1959 4750 
Q 2769 4750 3195 4129 
Q 3622 3509 3622 2328 
Q 3622 1225 3098 567 
Q 2575 -91 1691 -91 
Q 1453 -91 1209 -44 
Q 966 3 703 97 
z
M 1959 2075 
Q 2384 2075 2632 2365 
Q 2881 2656 2881 3163 
Q 2881 3666 2632 3958 
Q 2384 4250 1959 4250 
Q 1534 4250 1286 3958 
Q 1038 3666 1038 3163 
Q 1038 2656 1286 2365 
Q 1534 2075 1959 2075 
z
" transform="scale(0.015625)"/>
       </defs>
       <use xlink:href="#DejaVuSans-39"/>
       <use xlink:href="#DejaVuSans-30" x="63.623047"/>
      </g>
     </g>
    </g>
    <g id="text_14">
     <!-- EAR (%) -->
     <g transform="translate(109.195312 199.395312)rotate(-90)scale(0.1 -0.1)">
      <defs>
       <path id="DejaVuSans-45" d="M 628 4666 
L 3578 4666 
L 3578 4134 
L 1259 4134 
L 1259 2753 
L 3481 2753 
L 3481 2222 
L 1259 2222 
L 1259 531 
L 3634 531 
L 3634 0 
L 628 0 
L 628 4666 
z
" transform="scale(0.015625)"/>
       <path id="DejaVuSans-41" d="M 2188 4044 
L 1331 1722 
L 3047 1722 
L 2188 4044 
z
M 1831 4666 
L 2547 4666 
L 4325 0 
L 3669 0 
L 3244 1197 
L 1141 1197 
L 716 0 
L 50 0 
L 1831 4666 
z
" transform="scale(0.015625)"/>
       <path id="DejaVuSans-52" d="M 2841 2188 
Q 3044 2119 3236 1894 
Q 3428 1669 3622 1275 
L 4263 0 
L 3584 0 
L 2988 1197 
Q 2756 1666 2539 1819 
Q 2322 1972 1947 1972 
L 1259 1972 
L 1259 0 
L 628 0 
L 628 4666 
L 2053 4666 
Q 2853 4666 3247 4331 
Q 3641 3997 3641 3322 
Q 3641 2881 3436 2590 
Q 3231 2300 2841 2188 
z
M 1259 4147 
L 1259 2491 
L 2053 2491 
Q 2509 2491 2742 2702 
Q 2975 2913 2975 3322 
Q 2975 3731 2742 3939 
Q 2509 4147 2053 4147 
L 1259 4147 
z
" transform="scale(0.015625)"/>
       <path id="DejaVuSans-20" transform="scale(0.015625)"/>
       <path id="DejaVuSans-28" d="M 1984 4856 
Q 1566 4138 1362 3434 
Q 1159 2731 1159 2009 
Q 1159 1288 1364 580 
Q 1569 -128 1984 -844 
L 1484 -844 
Q 1016 -109 783 600 
Q 550 1309 550 2009 
Q 550 2706 781 3412 
Q 1013 4119 1484 4856 
L 1984 4856 
z
" transform="scale(0.015625)"/>
       <path id="DejaVuSans-25" d="M 4653 2053 
Q 4381 2053 4226 1822 
Q 4072 1591 4072 1178 
Q 4072 772 4226 539 
Q 4381 306 4653 306 
Q 4919 306 5073 539 
Q 5228 772 5228 1178 
Q 5228 1588 5073 1820 
Q 4919 2053 4653 2053 
z
M 4653 2450 
Q 5147 2450 5437 2106 
Q 5728 1763 5728 1178 
Q 5728 594 5436 251 
Q 5144 -91 4653 -91 
Q 4153 -91 3862 251 
Q 3572 594 3572 1178 
Q 3572 1766 3864 2108 
Q 4156 2450 4653 2450 
z
M 1428 4353 
Q 1159 4353 1004 4120 
Q 850 3888 850 3481 
Q 850 3069 1003 2837 
Q 1156 2606 1428 2606 
Q 1700 2606 1854 2837 
Q 2009 3069 2009 3481 
Q 2009 3884 1853 4118 
Q 1697 4353 1428 4353 
z
M 4250 4750 
L 4750 4750 
L 1831 -91 
L 1331 -91 
L 4250 4750 
z
M 1428 4750 
Q 1922 4750 2215 4408 
Q 2509 4066 2509 3481 
Q 2509 2891 2217 2550 
Q 1925 2209 1428 2209 
Q 931 2209 642 2551 
Q 353 2894 353 3481 
Q 353 4063 643 4406 
Q 934 4750 1428 4750 
z
" transform="scale(0.015625)"/>
       <path id="DejaVuSans-29" d="M 513 4856 
L 1013 4856 
Q 1481 4119 1714 3412 
Q 1947 2706 1947 2009 
Q 1947 1309 1714 600 
Q 1481 -109 1013 -844 
L 513 -844 
Q 928 -128 1133 580 
Q 1338 1288 1338 2009 
Q 1338 2731 1133 3434 
Q 928 4138 513 4856 
z
" transform="scale(0.015625)"/>
      </defs>
      <use xlink:href="#DejaVuSans-45"/>
      <use xlink:href="#DejaVuSans-41" x="63.183594"/>
      <use xlink:href="#DejaVuSans-52" x="131.591797"/>
      <use xlink:href="#DejaVuSans-20" x="201.074219"/>
      <use xlink:href="#DejaVuSans-28" x="232.861328"/>
      <use xlink:href="#DejaVuSans-25" x="271.875"/>
      <use xlink:href="#DejaVuSans-29" x="366.894531"/>
     </g>
    </g>
   </g>
   <g id="line2d_34">
    <path d="M 135 284.234036 
L 135.19715 279.602446 
L 135.690025 264.201746 
L 135.98575 259.239118 
L 136.478624 254.758269 
L 136.774349 253.827222 
L 137.267224 250.632106 
L 137.464374 250.199095 
L 138.055824 243.461566 
L 138.450124 236.30876 
L 139.140148 221.577527 
L 139.633023 208.930067 
L 140.125898 200.472317 
L 140.815923 192.234768 
L 141.801672 180.756288 
L 142.294547 172.116763 
L 142.590272 167.259062 
L 142.984572 160.010196 
L 144.364621 147.520866 
L 144.660346 146.687357 
L 144.857496 146.119862 
L 145.350371 147.062732 
L 145.448946 146.744993 
L 145.547521 146.85731 
L 145.646096 147.253375 
L 145.744671 147.220862 
L 146.138971 145.765177 
L 146.237546 145.938086 
L 146.73042 148.048459 
L 146.92757 148.151909 
L 147.420445 151.015987 
L 147.51902 150.998253 
L 147.814745 152.459849 
L 148.11047 154.301253 
L 148.209045 154.53032 
L 148.50477 156.682073 
L 149.391944 162.824027 
L 151.363444 176.457739 
L 151.856318 179.85838 
L 152.152043 182.161383 
L 152.250618 181.86732 
L 152.447768 183.034835 
L 153.630668 192.006646 
L 153.729243 191.977531 
L 154.813567 198.499308 
L 155.010717 200.678571 
L 155.109292 200.895478 
L 155.996467 206.741785 
L 156.390767 209.969192 
L 156.587917 211.199304 
L 157.080791 216.153234 
L 157.179366 216.664203 
L 157.770816 222.028656 
L 158.066541 224.520906 
L 158.657991 229.802381 
L 159.052291 232.186906 
L 159.249441 231.410989 
L 159.348016 231.576945 
L 159.64374 233.086562 
L 159.84089 233.009407 
L 159.939465 233.127323 
L 160.03804 233.532022 
L 160.136615 233.415562 
L 160.728065 229.265208 
L 160.82664 229.294323 
L 162.600989 240.13241 
L 162.699564 242.234519 
L 162.798139 241.838554 
L 163.192439 245.115455 
L 163.685314 249.868491 
L 165.065363 262.878563 
L 166.051113 268.784556 
L 166.149688 268.780189 
L 166.346838 269.135393 
L 166.445413 268.788923 
L 166.543988 269.042225 
L 166.741138 268.903928 
L 166.938288 267.701475 
L 167.234012 266.960497 
L 167.431162 266.720297 
L 167.628312 265.918177 
L 167.825462 266.318509 
L 167.924037 266.239899 
L 168.022612 265.977863 
L 168.318337 264.688065 
L 168.416912 264.693888 
L 168.515487 264.32995 
L 168.712637 264.724459 
L 168.811212 264.586162 
L 168.909787 264.130511 
L 169.205512 264.56287 
L 169.402662 263.46232 
L 169.698387 257.630571 
L 170.092686 252.362198 
L 171.669886 230.332276 
L 172.162761 228.701831 
L 172.458485 226.512378 
L 172.55706 226.390094 
L 172.852785 226.973852 
L 172.95136 226.861759 
L 173.049935 226.621559 
L 173.34566 226.867582 
L 173.54281 226.244519 
L 173.641385 226.066917 
L 173.93711 225.098841 
L 174.52856 223.548463 
L 174.627135 223.712963 
L 174.72571 224.195781 
L 174.824285 224.156569 
L 175.021434 224.008435 
L 175.218584 223.533537 
L 175.317159 223.672957 
L 175.514309 223.035402 
L 175.612884 222.910505 
L 175.908609 221.433528 
L 176.204334 222.432702 
L 176.302909 222.698471 
L 176.697209 222.428345 
L 176.894359 222.993286 
L 177.091509 223.472541 
L 177.190084 223.472541 
L 177.387234 223.950344 
L 177.584383 224.287275 
L 177.682958 224.113 
L 178.175833 220.201987 
L 178.372983 219.727089 
L 178.570133 219.417751 
L 178.668708 219.593478 
L 179.161583 221.183734 
L 179.260158 221.00365 
L 179.555883 222.145149 
L 179.654458 221.995563 
L 179.753033 222.084153 
L 180.048758 220.50842 
L 180.147332 220.556345 
L 180.738782 221.838716 
L 181.034507 223.17369 
L 181.133082 223.260654 
L 181.527382 224.847757 
L 181.921682 227.334944 
L 182.020257 227.358134 
L 182.315982 229.203232 
L 182.611707 230.551183 
L 182.710281 230.714966 
L 183.794606 237.318475 
L 183.991756 238.65773 
L 184.090331 238.60845 
L 184.484631 240.082499 
L 184.583206 240.078151 
L 185.371805 241.560896 
L 185.568955 241.039109 
L 185.963255 241.38117 
L 186.06183 241.437697 
L 186.160405 241.047806 
L 186.45613 241.659456 
L 186.751855 242.295747 
L 186.85043 242.227625 
L 187.44188 244.17708 
L 187.540455 244.282887 
L 187.934754 245.420673 
L 188.131904 245.525031 
L 188.230479 245.359798 
L 188.329054 245.414876 
L 188.821929 245.019187 
L 189.019079 245.082961 
L 189.216229 245.549671 
L 189.709104 246.826601 
L 190.201979 248.425299 
L 190.300554 248.509365 
L 191.286303 251.716908 
L 191.483453 252.047373 
L 191.582028 251.961858 
L 191.779178 252.280728 
L 192.567778 254.775161 
L 195.525026 271.492649 
L 196.017901 273.903016 
L 196.313626 276.043794 
L 196.905076 278.694764 
L 197.397951 281.529808 
L 197.693676 282.905298 
L 197.792251 282.906747 
L 197.890826 282.695133 
L 198.285125 279.944154 
L 198.679425 279.17017 
L 198.97515 280.388165 
L 199.1723 280.341452 
L 199.76375 281.134168 
L 199.862325 281.039325 
L 200.059475 280.860964 
L 200.3552 281.296958 
L 200.55235 281.875924 
L 200.650925 281.826379 
L 201.242374 284.523031 
L 201.439524 285.008337 
L 201.932399 286.814538 
L 202.030974 286.72253 
L 202.228124 287.080656 
L 202.326699 287.113213 
L 202.622424 286.225683 
L 202.819574 285.519339 
L 203.115299 284.83706 
L 203.213874 284.691261 
L 203.608173 283.486655 
L 203.805323 282.84401 
L 204.298198 279.712884 
L 204.593923 278.376635 
L 204.988223 276.134454 
L 205.283948 274.486791 
L 206.269697 264.534282 
L 206.861147 255.197524 
L 207.255447 247.880711 
L 208.635496 219.639708 
L 209.128371 207.764926 
L 210.015546 195.846263 
L 210.212696 193.141207 
L 210.508421 188.821046 
L 210.705571 186.176858 
L 212.184195 155.605912 
L 212.67707 145.939338 
L 213.26852 139.815807 
L 213.859969 135.928794 
L 213.958544 135.750438 
L 214.057119 135.814137 
L 214.254269 135.155921 
L 214.845719 132.72406 
L 215.042869 131.101877 
L 215.338594 127.779655 
L 215.930044 123.816205 
L 216.127193 123.83036 
L 216.422918 123.375978 
L 216.620068 122.597443 
L 216.718643 122.40918 
L 217.112943 122.676712 
L 217.211518 122.35539 
L 217.704393 124.06392 
L 217.802968 124.083738 
L 218.000118 124.339946 
L 218.788717 128.416542 
L 219.577317 130.780411 
L 219.774467 133.791086 
L 219.873042 134.220548 
L 219.971617 134.152884 
L 220.168767 135.086378 
L 220.464492 136.378908 
L 220.760217 134.775674 
L 221.055942 132.465414 
L 221.351666 131.947573 
L 221.450241 131.950335 
L 221.548816 131.826053 
L 221.943116 132.538602 
L 222.041691 132.419844 
L 222.337416 133.592235 
L 222.534566 134.471874 
L 222.633141 134.819863 
L 222.731716 134.752198 
L 223.520316 137.143932 
L 223.914615 139.813228 
L 224.308915 141.546268 
L 224.703215 144.20866 
L 225.097515 146.043887 
L 225.98469 151.828513 
L 226.083265 152.292498 
L 226.280415 155.967952 
L 226.576139 158.197204 
L 227.463314 163.987607 
L 227.759039 165.74464 
L 228.153339 167.334848 
L 228.251914 167.402116 
L 228.744789 169.808954 
L 229.139088 171.82564 
L 229.927688 178.946599 
L 230.716288 185.869791 
L 231.603462 193.610958 
L 231.702037 194.045508 
L 232.194912 197.932235 
L 232.884937 200.753443 
L 233.082087 200.213956 
L 233.180662 200.452084 
L 233.279237 200.370017 
L 233.772112 202.097452 
L 234.659286 206.703721 
L 235.250736 212.141114 
L 236.137911 220.496099 
L 236.433636 223.205388 
L 236.532211 223.470135 
L 236.827935 226.223773 
L 237.12366 227.470906 
L 237.32081 228.125382 
L 237.813685 230.668029 
L 238.010835 231.580532 
L 238.405135 232.975494 
L 240.278059 239.166811 
L 240.573784 240.56446 
L 240.770934 240.651813 
L 241.263809 239.224598 
L 241.756684 235.926684 
L 242.249558 233.897404 
L 242.742433 230.649214 
L 242.939583 229.953077 
L 243.333883 227.122838 
L 243.826758 220.547167 
L 244.023908 218.683187 
L 244.713932 208.798851 
L 245.601107 189.371528 
L 246.488282 166.364072 
L 247.079731 158.362531 
L 247.474031 154.752833 
L 248.262631 143.284046 
L 248.656931 141.295084 
L 248.755506 141.508763 
L 249.149806 140.070797 
L 249.248381 140.025105 
L 249.544106 138.786035 
L 250.03698 133.487063 
L 250.43128 131.072087 
L 252.00848 121.19447 
L 252.107055 121.125932 
L 252.304204 120.014532 
L 252.994229 114.630895 
L 253.289954 113.214431 
L 253.585679 113.616255 
L 253.979979 112.557267 
L 254.078554 112.768258 
L 254.670004 114.13231 
L 254.768578 114.591922 
L 254.965728 114.453501 
L 255.064303 113.782898 
L 255.162878 113.8595 
L 255.360028 114.218319 
L 255.458603 114.261324 
L 256.148628 116.274476 
L 256.641503 118.044384 
L 256.740078 117.888492 
L 256.937228 119.501164 
L 257.134378 120.049473 
L 257.232953 120.152953 
L 258.021552 123.348731 
L 258.317277 124.447236 
L 258.415852 124.527842 
L 258.514427 124.416338 
L 258.613002 124.041521 
L 259.007302 124.750852 
L 259.204452 125.298971 
L 259.303027 125.403759 
L 259.697327 127.100511 
L 260.091626 128.621274 
L 260.781651 133.299097 
L 261.274526 136.641551 
L 261.373101 136.930389 
L 261.668826 139.000614 
L 262.260276 142.023332 
L 262.556 143.627388 
L 262.654575 143.650226 
L 262.9503 145.403402 
L 263.7389 150.523214 
L 264.72465 159.328055 
L 264.9218 160.729252 
L 269.160523 203.831862 
L 270.836297 223.213528 
L 271.033447 223.863748 
L 271.427747 227.662968 
L 272.117772 235.548903 
L 272.610647 239.583223 
L 273.596396 246.34605 
L 273.793546 247.188381 
L 274.483571 253.049766 
L 274.976446 253.614007 
L 275.765045 256.61523 
L 275.962195 256.820774 
L 276.159345 256.912128 
L 276.356495 256.53328 
L 276.750795 253.593855 
L 276.84937 253.356068 
L 276.947945 253.400402 
L 277.145095 252.762272 
L 277.342245 252.198032 
L 277.63797 251.193146 
L 277.736545 251.308681 
L 277.83512 251.120601 
L 278.426569 247.693511 
L 279.018019 244.916387 
L 279.412319 241.361824 
L 279.510894 241.214053 
L 279.708044 240.156819 
L 280.792368 225.943941 
L 281.088093 224.333238 
L 281.285243 221.368416 
L 282.763868 190.031573 
L 283.946767 168.340143 
L 284.242492 159.584043 
L 284.932517 138.313088 
L 285.819691 123.726753 
L 286.016841 122.348453 
L 287.396891 104.388911 
L 287.988341 100.116987 
L 288.185491 98.965717 
L 288.57979 95.729534 
L 288.77694 93.584169 
L 289.17124 88.120674 
L 289.466965 86.188905 
L 289.56554 85.894706 
L 289.95984 83.162287 
L 290.55129 80.235079 
L 291.142739 80.795266 
L 291.339889 81.031699 
L 291.635614 80.063128 
L 291.832764 78.9844 
L 292.621364 76.217053 
L 292.719939 76.301686 
L 292.917089 76.129734 
L 293.212814 75.294156 
L 293.311389 75.059066 
L 293.508538 74.009893 
L 294.592863 71.415841 
L 294.888588 71.877961 
L 294.987163 71.74228 
L 295.085738 71.564955 
L 295.282888 70.989992 
L 295.381463 70.796546 
L 295.578613 71.019948 
L 295.677188 70.9945 
L 295.775763 71.10031 
L 295.874338 70.936907 
L 296.071487 71.019948 
L 296.367212 72.008402 
L 296.465787 72.332529 
L 296.564362 71.9267 
L 297.057237 74.396495 
L 297.155812 74.384441 
L 297.550112 75.351465 
L 297.747262 75.672913 
L 297.845837 75.634072 
L 298.042987 75.224225 
L 298.240137 76.035882 
L 298.338712 76.14705 
L 298.831586 75.61532 
L 298.930161 75.723809 
L 299.620186 78.324863 
L 300.014486 80.636612 
L 300.211636 81.704089 
L 300.803086 85.861488 
L 301.88741 94.990623 
L 303.46461 109.700905 
L 304.548934 120.812304 
L 305.830409 133.915345 
L 306.323283 138.225432 
L 307.309033 146.01118 
L 307.506183 147.078657 
L 307.604758 146.66747 
L 307.703333 146.991598 
L 307.801908 146.958113 
L 307.900483 146.962131 
L 308.196208 148.17426 
L 308.393358 147.334476 
L 308.491933 146.715688 
L 309.871982 153.709869 
L 309.970557 153.849163 
L 310.562007 156.095284 
L 310.857732 156.795774 
L 310.956307 156.399321 
L 311.054882 156.561384 
L 311.449181 158.914654 
L 311.744906 160.883526 
L 312.040631 161.546513 
L 312.336356 162.454605 
L 312.533506 163.130986 
L 312.829231 164.355168 
L 312.927806 164.253376 
L 313.223531 162.95285 
L 313.322106 162.792126 
L 313.716406 163.612358 
L 314.01213 162.016387 
L 314.702155 151.057295 
L 314.899305 150.605126 
L 315.19503 148.259998 
L 315.293605 147.932242 
L 315.78648 142.381794 
L 316.082205 138.581162 
L 316.37793 135.848078 
L 316.575079 134.486218 
L 317.363679 121.624804 
L 317.560829 119.771979 
L 318.053704 112.606831 
L 318.349429 109.303852 
L 318.546579 107.40153 
L 318.743729 105.624958 
L 319.039454 105.219611 
L 319.433753 103.072475 
L 319.630903 101.626335 
L 319.729478 101.431019 
L 320.123778 98.722015 
L 320.419503 97.872525 
L 320.518078 97.750787 
L 320.813803 95.733415 
L 321.010953 94.04915 
L 321.405253 89.793673 
L 321.700978 88.930805 
L 321.799552 88.926792 
L 321.898127 89.061908 
L 322.292427 87.475301 
L 323.179602 78.707493 
L 323.475327 75.128932 
L 323.869627 73.868743 
L 324.855376 68.469464 
L 324.953951 68.272811 
L 325.052526 68.394549 
L 325.249676 67.973148 
L 325.446826 68.113615 
L 325.545401 67.825992 
L 325.841126 68.844043 
L 325.939701 68.914945 
L 326.136851 69.400559 
L 326.334001 69.376479 
L 326.531151 68.897554 
L 326.629726 68.787856 
L 326.728301 68.977821 
L 327.024025 66.9658 
L 327.418325 68.758425 
L 327.5169 68.745047 
L 328.206925 71.535655 
L 328.3055 71.708229 
L 328.6998 73.082129 
L 328.798375 73.252027 
L 328.89695 73.055373 
L 329.389825 68.668793 
L 329.784124 66.366475 
L 329.981274 66.160457 
L 330.079849 66.383866 
L 330.178424 66.211292 
L 330.276999 66.444066 
L 330.375574 66.401257 
L 330.671299 67.248071 
L 330.967024 68.920296 
L 331.065599 69.029994 
L 331.361324 70.015938 
L 331.459899 69.733666 
L 331.558474 69.999884 
L 331.952774 68.798558 
L 332.248498 68.702238 
L 332.347073 68.884176 
L 332.445648 68.703576 
L 333.037098 71.301544 
L 333.135673 71.269437 
L 333.332823 72.338323 
L 333.825698 75.084785 
L 334.121423 77.023228 
L 334.417148 79.5222 
L 334.515723 79.852632 
L 335.107172 83.649251 
L 335.205747 83.712126 
L 336.092922 88.458569 
L 336.684372 94.323395 
L 338.951596 115.854088 
L 339.83877 120.172888 
L 340.62737 126.306333 
L 341.908845 133.320376 
L 342.993169 140.933064 
L 343.091744 141.245749 
L 343.584619 145.471011 
L 344.767519 154.256938 
L 344.866094 154.40259 
L 344.964668 153.896147 
L 345.063243 154.520182 
L 345.161818 154.40259 
L 345.457543 155.713464 
L 345.556118 156.011451 
L 345.753268 157.226113 
L 346.147568 158.557031 
L 346.246143 158.546341 
L 346.739018 162.000579 
L 347.034743 163.004113 
L 347.429043 164.392489 
L 347.724767 162.183647 
L 347.823342 162.155586 
L 348.217642 159.404221 
L 349.301967 145.003636 
L 349.696267 139.795401 
L 350.189141 137.374861 
L 350.287716 137.019724 
L 350.484866 135.511058 
L 350.879166 133.9076 
L 351.174891 131.501746 
L 351.372041 128.640622 
L 351.864916 118.828955 
L 352.160641 116.133384 
L 352.554941 114.894409 
L 352.75209 114.857026 
L 352.850665 115.150748 
L 353.047815 114.942472 
L 353.14639 114.368378 
L 353.244965 114.497883 
L 353.442115 115.025249 
L 353.54069 115.145408 
L 353.639265 115.509891 
L 353.73784 115.443136 
L 354.13214 113.47119 
L 354.230715 114.481462 
L 354.32929 114.379704 
L 354.625015 113.552424 
L 354.72359 113.917167 
L 354.92074 113.77312 
L 355.11789 112.503127 
L 355.413614 108.476416 
L 355.610764 106.287958 
L 356.300789 100.683337 
L 356.990814 96.536366 
L 357.089389 96.359281 
L 357.286539 94.839518 
L 357.680839 92.023331 
L 357.779413 91.762989 
L 358.765163 85.450027 
L 358.962313 84.920092 
L 359.159463 83.914405 
L 359.849488 75.14207 
L 360.145213 72.736873 
L 360.440937 71.478572 
L 361.130962 66.229736 
L 361.722412 64.048419 
L 361.919562 64.379759 
L 362.116712 64.106272 
L 362.215287 64.303498 
L 362.313862 64.883342 
L 362.412437 64.77947 
L 362.708162 66.053548 
L 362.806737 65.803729 
L 362.905312 65.539446 
L 363.102461 66.448 
L 363.398186 67.317108 
L 363.496761 67.034418 
L 363.792486 68.199365 
L 363.891061 68.378183 
L 364.285361 69.833709 
L 364.383936 70.083995 
L 364.679661 71.769644 
L 364.778236 71.774863 
L 364.876811 71.920988 
L 365.369686 74.174174 
L 365.468261 74.305947 
L 365.566835 74.21201 
L 366.05971 77.472411 
L 366.158285 77.68377 
L 366.25686 77.31063 
L 366.552585 80.445782 
L 366.749735 81.600426 
L 367.538335 86.746093 
L 367.63691 87.091834 
L 367.932635 89.047553 
L 368.622659 94.689 
L 369.016959 96.824765 
L 369.509834 101.470739 
L 370.199859 107.029991 
L 370.791308 112.452251 
L 370.988458 114.280111 
L 371.087033 114.603672 
L 371.481333 119.125701 
L 371.579908 119.740206 
L 371.875633 123.118769 
L 372.762808 132.777657 
L 373.157108 137.2487 
L 374.832882 156.036839 
L 375.128607 159.117262 
L 375.325757 160.668387 
L 375.818631 165.758099 
L 375.917206 166.222725 
L 376.607231 175.250839 
L 376.804381 177.091373 
L 377.198681 180.832766 
L 377.297256 181.170325 
L 378.57873 192.81312 
L 378.677305 192.804236 
L 379.071605 195.017599 
L 379.95878 198.16885 
L 380.057355 197.945483 
L 380.845955 203.835517 
L 381.141679 206.651718 
L 381.338829 207.61118 
L 381.437404 207.131449 
L 381.733129 207.890389 
L 381.831704 207.966537 
L 381.930279 207.335779 
L 382.028854 207.72794 
L 382.127429 207.212674 
L 382.620304 210.37027 
L 382.718879 210.591099 
L 382.817454 210.324581 
L 383.211754 210.641864 
L 383.408904 211.586097 
L 383.606053 211.256123 
L 383.704628 211.154593 
L 384.000353 209.851196 
L 384.197503 208.48688 
L 384.296078 208.555414 
L 384.591803 207.403043 
L 384.887528 204.409164 
L 385.183253 201.059929 
L 385.478978 196.447909 
L 385.873278 190.587065 
L 386.760452 179.624316 
L 386.957602 176.540329 
L 389.717701 110.357716 
L 390.407726 95.864246 
L 391.590625 82.128447 
L 391.6892 81.93993 
L 392.576375 76.268682 
L 392.773525 75.84131 
L 392.8721 75.361942 
L 392.970675 75.455787 
L 393.167825 74.710104 
L 393.46355 75.241466 
L 393.6607 75.221175 
L 394.054999 73.969493 
L 394.449299 70.161184 
L 394.843599 63.959842 
L 395.632199 59.356392 
L 395.829349 59.116708 
L 395.927924 58.721039 
L 396.026499 58.773034 
L 396.322224 59.247329 
L 396.716523 57.455398 
L 396.913673 57.203266 
L 397.012248 57.24865 
L 397.209398 57.697445 
L 397.307973 57.40119 
L 397.702273 58.537046 
L 397.800848 58.424847 
L 397.899423 58.650505 
L 398.096573 58.242051 
L 398.195148 58.571084 
L 398.293723 58.472752 
L 398.688023 56.618319 
L 398.885173 56.35358 
L 399.180897 57.391105 
L 399.279472 57.300337 
L 399.378047 57.319247 
L 400.462372 59.357736 
L 400.560947 59.314874 
L 400.659522 59.507755 
L 400.758097 59.356476 
L 401.053822 60.155735 
L 401.152397 60.005716 
L 401.250972 60.063707 
L 401.448122 59.671641 
L 401.546697 59.715764 
L 402.039571 61.049544 
L 402.138146 60.817582 
L 402.433871 61.839978 
L 402.532446 61.84376 
L 402.729596 62.6821 
L 402.926746 63.559521 
L 404.306795 73.823825 
L 404.898245 78.924461 
L 405.095395 80.633917 
L 405.58827 85.46099 
L 405.883995 87.108674 
L 406.278295 89.405599 
L 407.066894 93.882207 
L 407.165469 94.175941 
L 407.264044 93.654028 
L 407.362619 93.703193 
L 407.461194 93.898596 
L 407.658344 93.367857 
L 408.446944 97.812949 
L 409.136969 104.070872 
L 411.699918 133.667418 
L 411.897067 135.892485 
L 413.375692 153.70689 
L 414.164292 163.228665 
L 415.248616 178.098165 
L 416.234366 188.527616 
L 416.727241 192.436927 
L 417.12154 195.829367 
L 417.220115 196.119319 
L 417.31869 195.800371 
L 417.91014 198.946982 
L 418.008715 198.854954 
L 418.205865 199.644128 
L 418.30444 199.626479 
L 418.50159 199.375607 
L 418.69874 199.221806 
L 419.09304 201.575461 
L 420.078789 208.771316 
L 420.571664 213.937506 
L 420.768814 214.175771 
L 421.064539 215.287674 
L 421.163114 215.350707 
L 421.360264 215.681 
L 421.458839 215.365835 
L 421.754564 216.418487 
L 421.951714 215.575105 
L 422.444588 212.277215 
L 422.740313 213.428199 
L 423.134613 215.238508 
L 423.528913 217.095462 
L 423.627488 217.086638 
L 424.120363 218.629687 
L 424.218938 217.982968 
L 424.317513 218.102731 
L 424.416088 218.006921 
L 424.514663 218.111555 
L 424.711813 218.536398 
L 424.810387 218.382598 
L 425.697562 209.012102 
L 426.387587 194.660734 
L 426.979037 180.202209 
L 427.767636 171.540205 
L 427.866211 171.295637 
L 428.457661 162.555472 
L 429.246261 152.126021 
L 430.03486 144.211589 
L 430.23201 140.401871 
L 430.82346 125.123916 
L 431.21776 118.253312 
L 432.40066 104.364606 
L 432.794959 99.735458 
L 433.484984 94.052396 
L 433.780709 92.659366 
L 434.470734 89.111865 
L 434.569309 88.823173 
L 434.667884 88.979495 
L 434.766459 88.681979 
L 435.752208 80.101918 
L 436.146508 79.233323 
L 436.540808 79.118603 
L 436.639383 78.775703 
L 436.935108 79.70481 
L 437.132258 79.99098 
L 437.230833 80.434733 
L 437.329408 80.059056 
L 437.723707 81.965176 
L 437.920857 82.217308 
L 438.019432 82.142929 
L 438.413732 83.340557 
L 438.610882 83.864992 
L 438.709457 83.704888 
L 439.202332 86.369926 
L 439.300907 86.512381 
L 439.399482 86.347235 
L 440.582381 92.090807 
L 440.680956 92.269821 
L 440.779531 92.006343 
L 441.568131 95.219769 
L 441.962431 98.552957 
L 442.258156 100.566234 
L 442.751031 104.794492 
L 442.94818 106.285854 
L 443.53963 112.140365 
L 443.835355 115.234028 
L 444.623955 121.91049 
L 444.821105 122.931626 
L 444.91968 122.975749 
L 446.398304 133.063561 
L 448.271228 153.906075 
L 448.369803 154.18342 
L 449.059828 160.934261 
L 449.256978 162.793737 
L 449.651278 167.009388 
L 449.749853 167.33716 
L 450.242728 172.275171 
L 450.341303 172.291559 
L 450.439878 171.555333 
L 450.932752 173.767794 
L 451.228477 175.448255 
L 451.622777 179.140732 
L 451.721352 179.218893 
L 451.819927 178.881036 
L 452.411377 182.230613 
L 452.509952 181.707439 
L 453.101401 185.258722 
L 453.199976 185.219641 
L 453.988576 189.824837 
L 454.382876 191.321242 
L 454.580026 191.01238 
L 454.974326 191.845677 
L 455.762925 195.292325 
L 455.8615 195.294846 
L 455.960075 195.428476 
L 456.2558 196.642493 
L 456.748675 198.310348 
L 457.142975 200.884619 
L 457.24155 200.936306 
L 457.4387 200.520287 
L 458.03015 194.089654 
L 458.523024 188.468365 
L 459.114474 177.092158 
L 459.804499 169.639128 
L 459.903074 169.2811 
L 460.198799 167.735529 
L 460.297374 167.65989 
L 460.395949 167.778392 
L 460.593099 167.397672 
L 461.184548 159.398776 
L 462.564598 138.30413 
L 462.860323 135.180211 
L 463.451772 128.532744 
L 463.846072 121.288984 
L 464.634672 112.173142 
L 465.226122 107.443141 
L 465.324697 107.264127 
L 465.521847 106.327456 
L 465.718997 104.839875 
L 466.014721 102.720704 
L 467.000471 95.185731 
L 467.099046 95.110091 
L 467.789071 91.096146 
L 467.986221 89.718243 
L 468.084796 89.512755 
L 469.95772 77.199876 
L 470.056295 77.204919 
L 470.35202 76.381707 
L 470.450595 75.56858 
L 470.54917 75.582448 
L 470.844895 75.876182 
L 471.140619 74.584004 
L 471.239194 74.727719 
L 471.436344 74.827311 
L 471.534919 74.794534 
L 471.633494 75.032799 
L 471.732069 74.757975 
L 471.929219 75.008847 
L 472.224944 75.582448 
L 472.323519 75.716078 
L 472.520669 75.297538 
L 472.717819 75.915262 
L 472.816394 75.929129 
L 473.506419 78.460537 
L 473.703568 79.291313 
L 473.802143 79.47537 
L 473.900718 79.186678 
L 474.097868 79.57118 
L 474.196443 79.62917 
L 474.393593 80.584752 
L 474.590743 80.710818 
L 474.886468 82.911932 
L 474.985043 83.103553 
L 475.182193 83.779267 
L 475.280768 83.674633 
L 475.872218 86.141747 
L 475.970793 86.015681 
L 476.069368 86.372448 
L 476.463667 88.833259 
L 476.562242 89.200111 
L 476.660817 89.076566 
L 477.153692 91.744126 
L 477.646567 93.833041 
L 477.843717 94.507495 
L 478.139442 93.186322 
L 478.336592 93.688065 
L 478.632317 93.516615 
L 478.730892 93.367857 
L 479.223766 96.247208 
L 479.322341 96.164004 
L 479.420916 96.020289 
L 479.913791 97.646542 
L 480.012366 97.689404 
L 480.110941 97.081766 
L 480.308091 97.499045 
L 480.406666 97.742352 
L 480.603816 99.137904 
L 480.702391 99.086217 
L 480.800966 98.679024 
L 481.195266 100.675911 
L 481.392415 102.361415 
L 481.49099 102.525301 
L 481.786715 104.54362 
L 482.08244 105.934129 
L 482.181015 105.689561 
L 482.969615 110.187601 
L 483.46249 113.749951 
L 483.65964 113.870843 
L 484.251089 111.722492 
L 484.645389 114.100033 
L 484.842539 115.31399 
L 484.941114 115.347991 
L 485.236839 116.205568 
L 485.335414 116.355423 
L 485.433989 117.238186 
L 485.532564 117.185296 
L 485.828289 119.725286 
L 486.124014 122.041122 
L 486.321164 122.41639 
L 486.715463 125.103717 
L 486.912613 125.511727 
L 487.011188 125.34676 
L 487.109763 125.210757 
L 487.405488 127.286068 
L 487.504063 127.479999 
L 487.701213 127.927047 
L 488.095513 128.766994 
L 488.194088 128.63225 
L 488.391238 127.857786 
L 488.588388 128.09831 
L 488.884113 127.663855 
L 488.982688 127.71256 
L 489.081263 127.356484 
L 489.278412 127.681105 
L 489.574137 129.198516 
L 489.771287 128.634834 
L 489.869862 128.750591 
L 489.968437 128.84999 
L 490.559887 128.288824 
L 491.052762 129.984903 
L 491.151337 129.666574 
L 491.249912 129.730743 
L 491.447062 130.732285 
L 491.644212 132.248116 
L 491.742786 132.176089 
L 491.841361 131.941382 
L 491.939936 132.106547 
L 492.235661 131.844519 
L 492.629961 127.15907 
L 492.925686 123.491927 
L 493.319986 120.518971 
L 493.418561 120.696554 
L 493.911436 121.225576 
L 494.207161 123.126827 
L 494.502885 122.617675 
L 494.99576 117.168496 
L 495.19291 114.235279 
L 495.58721 112.249582 
L 495.685785 112.029777 
L 496.17866 109.033226 
L 496.37581 107.633676 
L 497.953009 98.669973 
L 498.150159 97.59536 
L 498.248734 97.278058 
L 498.445884 97.789956 
L 498.544459 98.40225 
L 498.938759 97.880436 
L 499.037334 98.206415 
L 499.135909 98.169231 
L 499.234484 98.21757 
L 499.333059 97.915141 
L 499.431633 98.07875 
L 499.628783 97.932494 
L 499.924508 98.692284 
L 500.121658 97.616431 
L 500.417383 98.083708 
L 500.614533 97.261945 
L 500.811683 95.189565 
L 501.205983 90.846936 
L 501.304558 90.48261 
L 501.501708 88.582906 
L 501.600283 88.544491 
L 501.896008 89.195074 
L 502.093157 89.509833 
L 502.191732 89.010433 
L 502.290307 89.102134 
L 502.783182 87.722897 
L 502.881757 86.852974 
L 502.980332 86.89139 
L 503.670357 82.486011 
L 504.064657 81.531822 
L 504.458957 78.976579 
L 504.951831 77.42881 
L 505.247556 78.040978 
L 505.346131 78.106656 
L 505.543281 78.576315 
L 505.641856 78.480896 
L 505.839006 79.586268 
L 505.937581 79.376842 
L 506.036156 79.665577 
L 506.134731 79.405344 
L 506.233306 79.492088 
L 506.331881 79.233094 
L 506.627606 80.835388 
L 506.824756 81.749922 
L 506.923331 81.681766 
L 507.021906 81.918455 
L 507.51478 84.484851 
L 507.613355 84.432804 
L 507.810505 84.606293 
L 508.007655 85.555525 
L 508.10623 85.528263 
L 508.30338 86.074753 
L 508.401955 85.777343 
L 508.599105 86.380837 
L 508.69768 86.465103 
L 508.89483 86.81332 
L 509.09198 86.809602 
L 509.48628 88.774983 
L 510.373454 92.341419 
L 510.472029 92.176605 
L 510.767754 93.947431 
L 511.852079 99.989801 
L 512.049229 100.930359 
L 512.640678 103.619437 
L 513.133553 107.582419 
L 513.232128 107.971529 
L 514.415028 119.016576 
L 514.809328 120.574258 
L 515.105052 121.985714 
L 515.400777 123.440543 
L 516.287952 130.6899 
L 516.485102 132.160838 
L 516.682252 135.655948 
L 517.273702 140.785916 
L 517.569426 143.50164 
L 520.526675 178.944177 
L 521.2167 186.808464 
L 524.666824 214.60465 
L 524.863974 216.610672 
L 524.962549 216.835851 
L 525.455423 220.05614 
L 525.751148 221.467741 
L 526.145448 224.088767 
L 526.342598 224.135981 
L 526.441173 223.950754 
L 527.131198 225.387778 
L 527.624073 225.691648 
L 527.722648 225.293349 
L 528.116947 227.119223 
L 528.215522 227.222126 
L 528.314097 227.026005 
L 528.609822 225.001844 
L 528.806972 224.018819 
L 528.905547 223.889282 
L 529.694147 216.427005 
L 529.891297 214.873777 
L 530.187022 213.950072 
L 530.778471 207.260172 
L 531.271346 197.657256 
L 532.059946 179.761642 
L 532.355671 173.103596 
L 532.94712 159.08621 
L 534.13002 145.506981 
L 534.820045 140.6257 
L 535.608644 136.870591 
L 536.200094 132.26693 
L 536.298669 132.118464 
L 536.495819 130.603626 
L 536.791544 126.223268 
L 537.185844 118.637006 
L 538.368743 97.527038 
L 539.551643 82.53074 
L 540.537393 70.911748 
L 540.734542 69.23758 
L 540.931692 67.65394 
L 541.030267 67.492197 
L 541.523142 64.089544 
L 541.818867 63.45826 
L 541.917442 63.226508 
L 542.311742 61.267478 
L 542.508892 60.672406 
L 543.001767 59.004273 
L 543.100342 59.064625 
L 543.297491 58.749587 
L 543.494641 55.635417 
L 543.593216 55.554545 
L 543.790366 56.069953 
L 543.888941 56.132719 
L 544.086091 59.365179 
L 544.184666 59.243268 
L 544.381816 58.861842 
L 544.578966 59.412254 
L 544.874691 60.006119 
L 544.973266 59.798507 
L 545.071841 59.951802 
L 545.268991 60.936748 
L 546.353315 65.444391 
L 546.84619 67.518874 
L 546.944765 67.619038 
L 547.04334 67.333027 
L 547.141915 67.555078 
L 548.02909 72.550007 
L 548.127665 72.312268 
L 548.324815 72.745508 
L 548.423389 72.265203 
L 548.521964 72.446223 
L 548.817689 73.999369 
L 548.916264 73.998163 
L 549.113414 73.225813 
L 549.507714 74.264865 
L 549.704864 74.852574 
L 549.803439 74.68483 
L 550.296314 76.770173 
L 550.493464 77.188932 
L 550.592039 77.326506 
L 550.789189 78.284703 
L 551.282063 79.799232 
L 552.662113 88.535229 
L 553.056413 91.984253 
L 553.352138 93.369655 
L 553.746437 96.999698 
L 556.013662 117.807278 
L 556.407961 122.543953 
L 556.703686 125.192871 
L 557.196561 130.0635 
L 557.393711 131.48752 
L 557.788011 136.251951 
L 558.083736 139.850617 
L 558.675185 147.577733 
L 558.77376 147.892707 
L 559.069485 150.83729 
L 559.16806 151.196915 
L 559.266635 151.160711 
L 559.463785 149.998566 
L 559.660935 149.426545 
L 559.95666 150.755228 
L 560.15381 151.082269 
L 560.74526 154.503537 
L 560.843835 154.572324 
L 561.632434 159.820681 
L 562.322459 166.162395 
L 562.618184 166.356689 
L 562.815334 166.853889 
L 562.913909 166.878025 
L 563.209634 168.855964 
L 563.505359 170.202748 
L 563.603934 170.238952 
L 564.096808 172.535485 
L 564.195383 172.530658 
L 564.293958 172.255509 
L 564.688258 174.308269 
L 564.786833 174.356541 
L 565.181133 172.385843 
L 565.279708 172.279645 
L 565.476858 171.293692 
L 566.068308 166.537708 
L 566.265458 165.402113 
L 566.462607 164.31479 
L 566.659757 163.181608 
L 566.955482 159.919638 
L 569.617006 111.208516 
L 570.109881 105.475028 
L 570.307031 104.041354 
L 570.602756 101.641036 
L 570.701331 101.671206 
L 570.799906 101.534838 
L 571.095631 100.363039 
L 571.489931 95.695151 
L 571.785655 94.603001 
L 571.982805 93.108987 
L 572.08138 92.634716 
L 572.179955 92.660059 
L 572.27853 92.702297 
L 572.47568 91.547393 
L 572.67283 90.27905 
L 572.771405 90.054586 
L 573.06713 90.654364 
L 573.165705 90.723151 
L 573.26428 90.318874 
L 573.362855 90.579542 
L 574.348604 96.916429 
L 574.447179 97.333981 
L 574.545754 97.265193 
L 574.644329 96.61835 
L 575.235779 98.671111 
L 575.334354 98.47923 
L 575.827229 99.862219 
L 575.925804 99.805499 
L 576.024379 99.25158 
L 576.418679 100.451135 
L 576.615829 100.328042 
L 576.714403 100.323215 
L 576.911553 101.164352 
L 577.108703 102.085137 
L 577.305853 103.059022 
L 577.404428 103.211078 
L 577.798728 105.545022 
L 577.995878 106.440465 
L 578.094453 106.354782 
L 578.587328 108.493225 
L 578.685903 108.204801 
L 578.981628 106.290822 
L 579.178778 106.386159 
L 579.375927 105.943265 
L 579.474502 105.582433 
L 579.868802 108.23135 
L 579.967377 108.084121 
L 580.164527 108.353237 
L 580.263102 108.901122 
L 580.361677 110.490473 
L 580.460252 110.02827 
L 580.755977 110.844064 
L 580.854552 110.739073 
L 581.347427 114.44273 
L 581.446002 114.517552 
L 581.544577 114.449971 
L 582.136026 118.069153 
L 582.234601 117.7047 
L 582.431751 118.242931 
L 582.530326 118.066739 
L 582.924626 115.664008 
L 583.220351 116.199825 
L 583.516076 116.993897 
L 583.614651 117.028894 
L 583.811801 118.13794 
L 584.206101 116.619791 
L 584.304676 115.659181 
L 584.403251 115.71228 
L 584.6004 116.077939 
L 584.9947 117.217155 
L 585.487575 120.995634 
L 586.5719 127.73197 
L 587.656224 134.407966 
L 587.754799 134.35004 
L 588.247674 137.819579 
L 588.346249 137.594252 
L 588.444824 137.776497 
L 589.726298 151.958044 
L 589.923448 154.05626 
L 591.106348 169.008752 
L 591.303498 171.3048 
L 591.796373 177.63422 
L 591.993523 179.936264 
L 593.570722 199.293811 
L 594.063597 204.469811 
L 595.049346 217.346867 
L 595.542221 222.155979 
L 596.527971 233.02594 
L 596.823696 234.724896 
L 597.217996 238.335028 
L 597.612295 240.903245 
L 597.90802 243.578171 
L 598.006595 243.781998 
L 598.10517 243.646513 
L 598.30232 244.398274 
L 598.69662 245.067306 
L 598.795195 244.775953 
L 599.386645 248.233814 
L 599.48522 248.334529 
L 599.780945 249.398025 
L 600.076669 250.550245 
L 600.175244 250.371597 
L 600.569544 252.960197 
L 600.766694 254.329433 
L 600.865269 254.510479 
L 601.259569 257.120661 
L 601.358144 257.08575 
L 601.456719 256.929078 
L 601.653869 256.160069 
L 601.752444 256.244983 
L 602.146744 257.573706 
L 602.245319 257.244814 
L 602.343894 257.417034 
L 602.442468 257.268734 
L 602.738193 259.270787 
L 602.836768 259.451378 
L 603.033918 259.044749 
L 603.132493 258.404905 
L 603.231068 258.519718 
L 603.526793 259.433439 
L 603.625368 259.255239 
L 603.822518 259.611638 
L 603.921093 259.3856 
L 604.118243 257.894226 
L 605.202567 244.036523 
L 605.596867 241.185331 
L 606.188317 233.259639 
L 606.681192 226.279959 
L 607.864091 211.031343 
L 608.554116 206.55124 
L 608.948416 205.352878 
L 609.342716 203.122394 
L 609.737016 201.806828 
L 611.01849 188.951348 
L 611.905665 176.393664 
L 612.39854 172.419456 
L 613.581439 157.789157 
L 614.074314 154.783685 
L 614.370039 153.617614 
L 615.060064 152.321183 
L 615.257214 152.498187 
L 615.355788 152.098733 
L 615.947238 153.399948 
L 616.045813 153.366461 
L 616.440113 154.530139 
L 616.538688 154.890126 
L 616.637263 154.677244 
L 616.735838 154.735846 
L 617.228713 155.674682 
L 617.327288 155.54193 
L 617.425863 155.687838 
L 617.524438 155.418745 
L 617.623013 155.538342 
L 617.721588 155.373298 
L 618.707337 149.544141 
L 618.805912 149.308535 
L 618.904487 149.452051 
L 619.003062 149.389861 
L 619.298787 149.880209 
L 619.693087 150.70782 
L 619.791662 150.703036 
L 619.890237 150.47341 
L 620.185962 147.867391 
L 620.284537 147.830316 
L 620.383112 147.615042 
L 620.481686 147.073267 
L 620.580261 147.196452 
L 620.875986 146.682185 
L 621.073136 146.978786 
L 621.270286 146.801782 
L 621.467436 146.875932 
L 621.664586 146.867561 
L 622.058886 148.101801 
L 622.157461 148.070418 
L 622.354611 148.672757 
L 622.847486 151.540127 
L 622.946061 151.37672 
L 623.438935 154.365751 
L 623.636085 154.597145 
L 624.227535 157.598103 
L 624.32611 157.524153 
L 624.621835 159.149871 
L 624.818985 160.330693 
L 624.91756 160.277019 
L 625.016135 160.574014 
L 627.086209 175.224559 
L 627.579084 179.708106 
L 627.677659 179.923993 
L 627.776234 180.448803 
L 628.367683 187.240321 
L 628.564833 189.0533 
L 628.959133 192.74009 
L 629.057708 192.712656 
L 629.156283 192.314278 
L 629.353433 192.806884 
L 629.452008 193.021579 
L 630.240608 197.675688 
L 630.339183 197.816433 
L 630.437758 197.596967 
L 630.536333 197.788999 
L 631.029207 200.329556 
L 631.127782 200.354604 
L 631.226357 200.6349 
L 631.620657 203.970365 
L 632.113532 206.412233 
L 632.310682 207.618859 
L 632.803557 209.786494 
L 633.197857 212.437018 
L 633.296432 212.761328 
L 633.789306 216.261975 
L 634.085031 217.928836 
L 634.479331 220.648515 
L 634.775056 222.402415 
L 635.267931 226.050909 
L 635.366506 225.907831 
L 635.563656 226.746031 
L 635.859381 226.84857 
L 635.957955 226.942763 
L 636.05653 226.500413 
L 636.45083 227.026226 
L 636.746555 226.453913 
L 636.943705 227.039341 
L 637.04228 227.081072 
L 637.23943 226.7663 
L 637.338005 226.533798 
L 637.535155 225.914985 
L 637.929455 225.336711 
L 638.02803 224.891976 
L 638.42233 221.250635 
L 639.605229 215.342698 
L 639.900954 215.35939 
L 640.098104 215.699201 
L 640.295254 214.876501 
L 640.788129 213.547066 
L 640.886704 211.498663 
L 641.083853 213.514873 
L 641.379578 214.255303 
L 641.478153 214.066917 
L 641.576728 213.919069 
L 641.773878 214.96354 
L 642.168178 217.414947 
L 642.266753 217.64268 
L 643.055353 224.903899 
L 643.449653 229.209361 
L 643.646802 229.084167 
L 643.843952 229.848443 
L 643.942527 229.830559 
L 644.139677 230.350409 
L 644.238252 230.406448 
L 644.336827 229.953367 
L 644.829702 231.772845 
L 645.125427 231.328111 
L 645.322577 230.821375 
L 645.421152 230.69499 
L 645.618302 229.62548 
L 645.815452 228.515431 
L 646.012602 228.349699 
L 646.111177 228.34493 
L 646.406901 227.852502 
L 646.702626 228.917243 
L 646.899776 228.496354 
L 647.294076 225.838677 
L 647.392651 225.733753 
L 647.589801 225.173363 
L 647.688376 225.092285 
L 647.885526 224.795398 
L 647.984101 224.860976 
L 648.279826 224.567665 
L 648.476976 223.857043 
L 648.772701 224.156315 
L 649.068425 223.403962 
L 649.265575 222.496608 
L 649.5613 221.917141 
L 649.857025 220.294396 
L 649.9556 219.898546 
L 650.15275 220.077394 
L 650.251325 220.132241 
L 650.448475 219.528928 
L 650.54705 219.135462 
L 650.645625 219.179578 
L 650.7442 219.441888 
L 650.842775 219.31908 
L 651.039925 218.180415 
L 651.237075 217.744027 
L 651.33565 217.848951 
L 651.631374 218.453456 
L 651.828524 218.95423 
L 651.927099 218.986423 
L 652.419974 221.233943 
L 652.518549 219.838235 
L 652.617124 219.929184 
L 652.912849 221.359563 
L 653.208574 220.998129 
L 653.602874 220.171321 
L 653.701449 220.054387 
L 653.800024 220.21148 
L 653.997173 218.981898 
L 654.095748 219.06576 
L 654.194323 219.089383 
L 654.391473 219.48507 
L 654.490048 218.954732 
L 654.884348 214.682495 
L 655.081498 214.419097 
L 655.574373 214.781712 
L 655.771523 215.242362 
L 655.870098 215.17858 
L 656.067248 214.80061 
L 656.165823 214.771081 
L 656.362973 215.054558 
L 656.461548 215.093537 
L 656.658697 215.375833 
L 656.855847 215.199841 
L 657.052997 215.411267 
L 657.348722 216.199097 
L 658.038747 218.606291 
L 658.137322 218.567313 
L 658.531622 220.577638 
L 659.024497 223.092317 
L 659.320221 224.144726 
L 659.418796 224.131733 
L 659.517371 223.946292 
L 660.010246 225.764089 
L 660.305971 226.802324 
L 660.798846 229.987899 
L 660.897421 230.178064 
L 661.488871 234.413686 
L 661.587446 234.522352 
L 663.26322 247.836329 
L 664.446119 256.066615 
L 665.136144 262.304294 
L 665.629019 265.42018 
L 665.826169 264.958349 
L 666.023319 264.46935 
L 666.121894 264.436278 
L 666.220469 264.523684 
L 666.417619 264.316981 
L 666.811919 266.482038 
L 667.699093 273.13194 
L 667.797668 273.238244 
L 669.670592 289.404709 
L 669.769167 289.329115 
L 669.867742 289.075167 
L 670.262042 291.875685 
L 670.360617 292.294995 
L 670.459192 292.250111 
L 670.557767 292.263104 
L 670.853492 294.340755 
L 671.444942 298.111001 
L 671.642092 298.872846 
L 671.740667 298.84568 
L 671.937817 297.460185 
L 672.036391 297.508612 
L 672.430691 297.694054 
L 672.627841 297.323171 
L 673.120716 299.413815 
L 673.613591 297.300729 
L 674.007891 295.683728 
L 674.205041 294.287603 
L 674.59934 289.391717 
L 675.486515 283.328849 
L 675.58509 283.244987 
L 675.880815 283.744616 
L 676.077965 283.412711 
L 676.866565 287.507775 
L 677.260864 289.995287 
L 677.359439 290.329554 
L 677.458014 290.268133 
L 677.950889 292.74974 
L 678.148039 292.847776 
L 678.443764 294.157676 
L 678.640914 294.367922 
L 679.035214 293.054478 
L 679.330939 292.654066 
L 679.725238 290.442944 
L 679.922388 289.970482 
L 680.119538 288.26962 
L 680.415263 285.500993 
L 680.809563 283.794224 
L 681.006713 282.585903 
L 681.203863 282.374476 
L 681.302438 282.284708 
L 681.499588 281.57011 
L 681.795313 280.194064 
L 682.091038 278.284137 
L 682.485337 274.862331 
L 682.781062 272.581522 
L 683.273937 266.082808 
L 683.569662 263.581122 
L 683.963962 260.031752 
L 684.259687 256.671366 
L 684.555412 253.701943 
L 685.048286 250.306123 
L 685.442586 249.850198 
L 685.541161 249.904531 
L 686.329761 246.011444 
L 686.526911 244.839739 
L 686.822636 244.406255 
L 687.118361 243.303057 
L 687.414086 243.243999 
L 687.70981 242.70303 
L 688.005535 241.62936 
L 688.399835 240.098584 
L 688.49841 239.753686 
L 688.991285 240.048975 
L 689.08986 239.919048 
L 689.188435 239.524542 
L 689.28701 239.6651 
L 689.385585 239.598955 
L 689.977035 237.250819 
L 690.075609 237.309877 
L 690.174184 237.174044 
L 690.568484 235.764927 
L 690.765634 236.020056 
L 691.061359 236.666148 
L 691.159934 236.400388 
L 691.455659 234.746771 
L 691.554234 234.652279 
L 691.849959 233.577428 
L 692.047109 232.946691 
L 692.342834 232.723453 
L 692.638558 232.19902 
L 693.131433 233.112053 
L 693.230008 232.96559 
L 693.722883 230.668244 
L 693.920033 229.801276 
L 694.708633 224.111653 
L 694.905783 224.056139 
L 695.201507 224.089212 
L 695.398657 223.89314 
L 695.497232 223.877785 
L 695.891532 224.314812 
L 695.990107 224.236856 
L 696.187257 224.647898 
L 696.384407 225.364859 
L 697.567307 231.913181 
L 698.553056 239.326108 
L 699.045931 242.121902 
L 699.440231 245.312201 
L 700.031681 247.146534 
L 700.228831 246.323269 
L 700.327405 246.404769 
L 700.524555 247.167795 
L 700.82028 248.219023 
L 700.918855 248.1139 
L 701.21458 250.140762 
L 701.510305 252.273927 
L 701.60888 251.87824 
L 702.00318 253.602726 
L 702.20033 254.410636 
L 702.298905 254.482687 
L 702.79178 257.781652 
L 702.988929 257.325726 
L 703.087504 256.980829 
L 703.481804 258.606098 
L 703.580379 258.857684 
L 703.678954 258.760829 
L 703.974679 260.559728 
L 704.270404 262.424771 
L 704.467554 262.912588 
L 704.861854 264.518959 
L 705.551878 266.004852 
L 705.749028 265.693027 
L 706.044753 266.771421 
L 706.636203 268.29393 
L 706.931928 269.290824 
L 707.129078 268.440393 
L 707.227653 268.584494 
L 707.523378 268.115575 
L 707.917678 268.608117 
L 708.114827 268.083684 
L 708.213402 268.123843 
L 708.311977 268.032894 
L 708.607702 267.198999 
L 708.804852 266.576531 
L 709.002002 266.43243 
L 709.199152 265.671766 
L 709.297727 265.709563 
L 709.494877 265.561919 
L 709.790602 265.592629 
L 709.987752 265.045754 
L 710.184902 264.905197 
L 710.677776 263.77365 
L 710.776351 263.84452 
L 711.072076 262.785024 
L 711.367801 261.803484 
L 712.156401 258.221042 
L 712.353551 255.227995 
L 713.93075 220.967419 
L 714.5222 211.110683 
L 715.212225 203.925718 
L 716.197974 194.769406 
L 716.592274 193.408716 
L 716.789424 192.448437 
L 717.183724 189.828636 
L 717.972324 182.047188 
L 718.465198 176.933969 
L 719.056648 174.864585 
L 719.253798 174.09211 
L 719.746673 169.954525 
L 720.239548 167.775294 
L 720.338123 167.882779 
L 720.633848 168.781638 
L 720.732423 169.114724 
L 720.929572 168.784001 
L 721.422447 170.024213 
L 721.619597 169.802156 
L 722.013897 171.577432 
L 722.211047 171.919967 
L 722.309622 171.898706 
L 722.506772 172.613304 
L 722.802497 172.652283 
L 722.901072 172.561334 
L 722.999647 172.276675 
L 723.295372 173.147186 
L 723.591096 174.21495 
L 723.689671 174.113371 
L 724.182546 176.513478 
L 724.281121 176.663484 
L 724.379696 176.469775 
L 724.675421 177.62022 
L 724.872571 177.80448 
L 725.266871 175.853212 
L 725.759746 175.205939 
L 726.154045 176.328036 
L 726.25262 176.448514 
L 726.44977 175.730372 
L 726.84407 176.695375 
L 727.04122 176.599702 
L 727.139795 176.319768 
L 727.63267 177.87653 
L 727.82982 177.841096 
L 728.322695 179.462821 
L 728.519845 179.468727 
L 729.308444 182.297593 
L 729.801319 185.115828 
L 729.899894 185.331979 
L 730.294194 188.075802 
L 730.589919 187.269073 
L 731.378518 191.160978 
L 733.251443 204.903714 
L 733.350018 205.321843 
L 733.842892 209.67558 
L 733.941467 209.393284 
L 734.138617 208.638526 
L 734.237192 208.685772 
L 734.434342 209.21611 
L 734.631492 209.764166 
L 734.730067 209.814956 
L 735.222942 213.124552 
L 735.617242 214.081287 
L 736.208692 216.623132 
L 737.785891 230.152079 
L 738.475916 236.434641 
L 739.855965 245.508273 
L 740.053115 245.854351 
L 740.250265 245.665366 
L 740.54599 247.17252 
L 740.74314 247.704039 
L 740.94029 247.333157 
L 741.531739 249.812401 
L 741.630314 250.017922 
L 742.123189 253.570835 
L 742.221764 253.855493 
L 742.517489 253.307438 
L 742.714639 253.176329 
L 742.813214 253.223576 
L 743.010364 252.617643 
L 744.291838 257.548965 
L 744.390413 257.535972 
L 744.883288 259.123444 
L 744.981863 259.080922 
L 745.080438 258.770279 
L 745.179013 258.816344 
L 745.277588 258.786815 
L 745.474738 257.893862 
L 745.967613 255.429973 
L 746.361913 255.116967 
L 746.460488 254.761439 
L 746.657637 255.154764 
L 746.854787 255.643762 
L 746.953362 255.486668 
L 747.150512 254.67994 
L 747.249087 254.756715 
L 747.446237 255.28351 
L 747.544812 255.556356 
L 747.643387 255.376821 
L 747.840537 254.353941 
L 748.037687 254.597259 
L 748.136262 254.643324 
L 748.333412 254.307876 
L 749.122012 249.91398 
L 749.319161 248.403283 
L 749.417736 248.302885 
L 749.713461 247.023694 
L 750.009186 244.988564 
L 750.107761 244.864543 
L 750.502061 243.350303 
L 750.699211 242.014417 
L 751.093511 239.967475 
L 751.88211 235.513341 
L 751.980685 235.023161 
L 752.374985 235.668072 
L 752.47356 235.650355 
L 753.26216 231.948616 
L 753.45931 230.597374 
L 754.05076 228.295304 
L 754.642209 229.389053 
L 754.839359 228.709889 
L 755.036509 228.549252 
L 755.332234 228.721701 
L 755.430809 228.452397 
L 755.825109 229.172902 
L 755.923684 229.357162 
L 756.120834 228.693353 
L 756.416559 229.455198 
L 756.613709 229.637096 
L 756.712284 229.502444 
L 756.810859 229.000453 
L 757.106583 229.366611 
L 757.205158 229.378423 
L 757.303733 229.070141 
L 757.402308 229.107938 
L 757.500883 228.999272 
L 757.796608 229.722139 
L 757.993758 230.033964 
L 758.092333 230.004435 
L 758.190908 229.693791 
L 758.388058 229.875689 
L 758.585208 229.467009 
L 758.979508 228.062616 
L 759.176658 228.227978 
L 759.373808 228.497281 
L 759.570957 228.063797 
L 759.669532 228.233884 
L 760.162407 228.774853 
L 760.260982 228.702802 
L 760.556707 229.690248 
L 760.655282 229.739856 
L 761.049582 226.035755 
L 761.739607 220.412277 
L 762.429631 216.789675 
L 762.626781 216.642031 
L 763.119656 214.896284 
L 763.513956 214.944711 
L 763.711106 214.766357 
L 764.598281 216.688096 
L 764.99258 218.668892 
L 765.091155 218.712595 
L 765.38688 220.091003 
L 765.682605 221.619417 
L 765.78118 221.819032 
L 766.274055 224.68097 
L 766.56978 225.830234 
L 768.442704 239.431231 
L 768.541279 239.613129 
L 769.132729 244.654298 
L 769.231304 244.807848 
L 769.822754 249.29033 
L 769.921328 249.171034 
L 770.611353 251.907769 
L 772.385703 268.187626 
L 772.780002 272.131502 
L 774.258627 288.09599 
L 775.244376 294.154133 
L 775.540101 295.167564 
L 776.032976 299.015766 
L 776.131551 298.88702 
L 776.723001 302.645455 
L 776.920151 302.553324 
L 777.117301 302.49781 
L 777.314451 301.726516 
L 777.413026 301.500916 
L 777.610175 300.822933 
L 777.807325 300.485122 
L 778.004475 300.69773 
L 778.201625 299.922893 
L 778.398775 300.35992 
L 778.49735 300.215819 
L 778.6945 301.026091 
L 778.990225 300.286688 
L 779.0888 300.255978 
L 779.4831 299.169316 
L 779.68025 298.578739 
L 779.975975 298.245653 
L 780.07455 298.091002 
L 780.468849 296.293092 
L 781.257449 294.120717 
L 781.454599 294.281371 
L 781.848899 292.888641 
L 782.046049 292.56497 
L 782.243199 291.695547 
L 783.130373 282.938054 
L 784.707573 262.613893 
L 785.299022 259.041996 
L 785.594747 257.481016 
L 785.890472 254.861269 
L 786.383347 250.827209 
L 786.777647 246.168761 
L 787.171947 242.36514 
L 787.664822 238.013689 
L 788.453421 233.57413 
L 788.650571 232.021409 
L 789.439171 228.191372 
L 789.636321 227.14098 
L 789.833471 225.434544 
L 790.129196 223.051062 
L 790.424921 222.149914 
L 790.720645 220.320165 
L 791.01637 219.105804 
L 791.21352 217.841939 
L 791.509245 215.045236 
L 792.39642 209.478602 
L 792.59357 208.148326 
L 792.79072 206.91434 
L 793.086444 206.422818 
L 793.185019 206.363917 
L 793.677894 204.661516 
L 794.072194 204.120208 
L 794.269344 204.540169 
L 794.663644 205.816421 
L 794.762219 205.60116 
L 794.959369 206.048533 
L 796.733718 211.4436 
L 796.832293 211.113897 
L 797.128018 211.438586 
L 798.212342 213.448408 
L 798.705217 215.004603 
L 799.789542 217.102831 
L 800.380992 219.179617 
L 800.775291 220.688095 
L 800.873866 220.907977 
L 800.972441 220.813166 
L 801.465316 222.668586 
L 801.859616 224.034241 
L 802.253916 226.051244 
L 802.352491 226.341842 
L 802.943941 230.25525 
L 803.042516 230.43803 
L 804.32399 239.39553 
L 804.422565 239.614786 
L 805.30974 245.841735 
L 806.394064 254.080927 
L 806.492639 254.237079 
L 807.084089 258.018726 
L 807.182664 257.646221 
L 807.281239 257.683578 
L 807.379814 257.774131 
L 807.971264 260.060418 
L 808.562713 263.710191 
L 810.534213 276.408705 
L 810.632788 276.369115 
L 811.027088 277.77495 
L 811.322812 277.150625 
L 811.519962 277.5712 
L 811.717112 277.789716 
L 811.815687 277.73203 
L 812.012837 276.613364 
L 812.505712 277.617925 
L 812.604287 277.495471 
L 812.702862 277.188721 
L 813.097162 277.631032 
L 813.392887 276.836756 
L 813.688611 277.381377 
L 813.885761 277.326546 
L 814.082911 276.15154 
L 814.181486 276.236299 
L 814.378636 276.325489 
L 814.477211 276.140606 
L 814.575786 276.245917 
L 815.265811 273.755491 
L 816.941585 259.245297 
L 817.04016 259.138851 
L 817.335885 259.392551 
L 817.533035 258.775481 
L 817.730185 259.178402 
L 818.02591 259.324831 
L 818.321635 258.464355 
L 818.518785 257.319559 
L 818.913084 255.433409 
L 819.208809 253.780878 
L 819.405959 253.839677 
L 819.701684 252.479005 
L 820.095984 252.640577 
L 820.293134 252.366337 
L 820.687434 253.793971 
L 820.884584 254.034469 
L 820.983159 253.672538 
L 821.574608 255.599386 
L 821.673183 255.42163 
L 822.560358 259.257884 
L 822.856083 259.52094 
L 823.053233 258.980583 
L 823.250383 259.529021 
L 823.348958 259.56499 
L 823.644683 258.129805 
L 824.038982 254.429837 
L 824.729007 249.090109 
L 825.024732 245.418538 
L 825.714757 234.794942 
L 826.109057 229.667014 
L 826.996231 219.387844 
L 827.390531 215.285534 
L 827.981981 212.33327 
L 828.376281 212.157556 
L 828.573431 211.045679 
L 828.869156 208.514858 
L 830.15063 199.273163 
L 830.446355 198.603375 
L 831.037805 195.85404 
L 831.13638 195.836594 
L 831.629255 194.182765 
L 831.924979 193.466421 
L 832.122129 192.775848 
L 832.220704 192.557771 
L 832.812154 190.109005 
L 833.206454 189.188502 
L 833.600754 187.085641 
L 833.797904 185.79377 
L 834.192204 182.252375 
L 834.783653 180.125517 
L 835.276528 180.338407 
L 835.473678 179.780485 
L 835.769403 179.985636 
L 835.966553 179.889154 
L 836.163703 180.057434 
L 836.952302 182.437679 
L 837.346602 183.22336 
L 837.445177 183.283785 
L 837.642327 182.98858 
L 837.938052 183.921897 
L 838.529502 186.284573 
L 839.022377 188.33425 
L 841.191026 200.771096 
L 841.585326 203.67706 
L 841.683901 204.079946 
L 842.176775 208.835156 
L 842.66965 212.533616 
L 843.6554 220.660156 
L 843.753975 221.1157 
L 845.035449 236.153101 
L 845.134024 236.573819 
L 845.725474 242.434262 
L 845.824049 242.708219 
L 846.514074 248.993289 
L 849.077023 272.441047 
L 849.175598 272.559459 
L 849.274173 272.944526 
L 849.471323 274.86751 
L 849.569898 275.020187 
L 850.555647 278.921992 
L 850.654222 278.848832 
L 851.837122 285.280388 
L 852.231422 286.327603 
L 852.428571 286.824693 
L 852.527146 287.107855 
L 852.625721 287.023837 
L 852.724296 286.666286 
L 853.020021 287.310753 
L 853.217171 287.004389 
L 853.512896 285.547685 
L 853.710046 285.222452 
L 854.301496 283.143327 
L 854.498646 282.36018 
L 854.597221 282.299219 
L 854.794371 281.768858 
L 854.99152 282.296409 
L 855.090095 282.197005 
L 855.287245 282.617771 
L 855.38582 282.507822 
L 855.58297 281.941754 
L 855.97727 281.041475 
L 856.37157 279.226409 
L 856.56872 278.933916 
L 856.667295 278.641679 
L 856.864445 277.163248 
L 857.061595 277.297681 
L 857.258745 276.507311 
L 857.455894 274.650624 
L 857.948769 267.968493 
L 858.638794 261.474163 
L 859.033094 253.498184 
L 860.018843 233.750008 
L 860.610293 223.460894 
L 861.596043 202.726311 
L 861.891768 197.793623 
L 862.581792 190.704068 
L 862.877517 188.304563 
L 863.764692 176.123074 
L 864.158992 173.322003 
L 864.454717 170.809248 
L 864.750442 169.406132 
L 864.947592 168.011632 
L 865.440466 165.063841 
L 865.933341 162.38939 
L 866.327641 160.319364 
L 866.524791 159.438667 
L 866.623366 159.493568 
L 866.820516 159.271534 
L 866.919091 159.224195 
L 867.313391 158.070039 
L 867.510541 157.92813 
L 867.70769 158.078697 
L 867.90484 157.130219 
L 868.003415 157.26774 
L 868.10199 157.34551 
L 868.29914 157.573402 
L 868.397715 157.551175 
L 868.594865 157.142199 
L 868.792015 157.275174 
L 868.89059 157.311545 
L 869.580615 156.28969 
L 869.87634 155.990886 
L 869.974915 155.815564 
L 870.369214 156.954149 
L 870.467789 157.133057 
L 870.664939 156.964554 
L 870.862089 157.405599 
L 870.960664 157.191032 
L 871.256389 155.655636 
L 871.453539 155.316318 
L 871.650689 155.267976 
L 871.946414 155.631092 
L 872.044989 155.605985 
L 872.537864 158.091566 
L 872.636439 158.245811 
L 872.735014 158.17684 
L 873.227888 159.287502 
L 873.425038 159.087891 
L 873.622188 159.80794 
L 873.819338 159.214453 
L 874.115063 159.118454 
L 874.706513 161.187427 
L 874.805088 161.187784 
L 877.072312 178.268517 
L 877.466612 181.524932 
L 877.565187 181.346459 
L 877.959487 183.209842 
L 878.156636 183.48048 
L 878.255211 183.286947 
L 879.142386 189.767767 
L 880.029561 199.078197 
L 881.902485 224.27382 
L 883.085385 240.997296 
L 883.381109 244.867656 
L 884.268284 254.587312 
L 885.155459 261.834199 
L 885.845483 265.962287 
L 886.239783 269.769693 
L 886.732658 272.914982 
L 886.929808 273.563068 
L 887.225533 273.602434 
L 887.324108 273.989301 
L 888.211283 281.00325 
L 888.507007 282.834812 
L 888.605582 282.607422 
L 888.901307 283.286537 
L 889.197032 283.040366 
L 889.295607 282.570651 
L 889.788482 284.59665 
L 889.887057 284.619142 
L 889.985632 284.409913 
L 890.084207 284.476545 
L 890.281357 284.136095 
L 890.478507 282.873593 
L 891.957131 274.210997 
L 892.548581 271.277603 
L 893.041456 267.236515 
L 893.53433 262.420609 
L 894.618655 255.008203 
L 894.91438 252.465333 
L 896.590154 236.366749 
L 896.984454 230.804708 
L 897.970204 218.55929 
L 898.857378 211.074951 
L 899.054528 209.836328 
L 899.350253 209.122178 
L 899.744553 208.648098 
L 899.843128 208.675803 
L 900.138853 208.0243 
L 900.434578 207.585069 
L 900.927453 207.759854 
L 901.026028 207.610536 
L 901.321752 208.527994 
L 901.420327 208.663029 
L 901.617477 209.158354 
L 901.716052 209.016498 
L 901.913202 209.562815 
L 902.011777 209.569978 
L 902.110352 209.773142 
L 902.406077 209.605511 
L 902.800377 210.886183 
L 903.194677 211.683679 
L 904.180426 215.188243 
L 904.476151 215.626791 
L 905.067601 217.438073 
L 905.166176 217.365581 
L 905.560476 218.290845 
L 905.757626 218.630076 
L 905.856201 218.532511 
L 906.6448 220.766899 
L 906.940525 221.793225 
L 908.81345 227.119215 
L 909.207749 227.698399 
L 909.306324 227.760038 
L 910.390649 232.569064 
L 910.686374 234.052171 
L 911.277824 237.534286 
L 911.376399 237.820853 
L 911.967848 241.811815 
L 912.066423 241.994656 
L 912.657873 245.940179 
L 912.756448 246.194406 
L 913.347898 250.539651 
L 913.446473 250.777944 
L 914.037923 255.044888 
L 914.136497 255.343173 
L 914.727947 260.722672 
L 914.826522 261.119082 
L 915.319397 265.308345 
L 915.812272 268.969698 
L 916.206572 271.845817 
L 916.502297 273.948311 
L 916.699446 274.54502 
L 916.896596 274.408001 
L 917.980921 280.672341 
L 918.178071 281.559598 
L 918.276646 281.622328 
L 918.670946 282.663241 
L 918.769521 282.727428 
L 919.163821 281.992271 
L 919.459545 282.261316 
L 920.14957 279.37629 
L 920.642445 277.799026 
L 920.839595 277.647242 
L 921.233895 276.040496 
L 921.431045 276.311934 
L 921.52962 276.573279 
L 921.628195 276.462065 
L 921.72677 276.150355 
L 922.022494 276.765709 
L 922.219644 276.789015 
L 922.416794 276.200311 
L 922.515369 276.370369 
L 922.811094 276.923433 
L 922.909669 276.844945 
L 923.205394 275.405823 
L 923.599694 275.211014 
L 923.796844 274.722629 
L 923.993994 274.831976 
L 924.289719 274.324742 
L 925.669768 267.295209 
L 927.049817 250.253263 
L 928.035567 223.600449 
L 928.528442 208.4463 
L 928.922742 202.615348 
L 929.415617 199.017117 
L 929.514191 198.921075 
L 929.809916 197.639114 
L 930.302791 190.834321 
L 930.894241 180.183876 
L 931.978566 160.26631 
L 932.27429 155.992254 
L 933.161465 148.729987 
L 934.24579 141.294604 
L 935.921564 123.897798 
L 936.118714 122.591295 
L 936.414439 120.489102 
L 937.104464 117.51862 
L 937.301613 116.788291 
L 937.695913 114.534473 
L 938.583088 111.83841 
L 938.780238 111.967696 
L 939.075963 110.911082 
L 939.371688 108.298943 
L 939.765988 106.772916 
L 939.963137 106.65555 
L 940.160287 106.720805 
L 940.258862 106.63559 
L 940.357437 106.38902 
L 940.554587 106.539678 
L 940.751737 106.693136 
L 940.850312 106.849205 
L 941.047462 106.554995 
L 941.638912 107.595118 
L 941.737487 107.268018 
L 941.934637 107.690001 
L 942.033212 107.673037 
L 942.230362 108.048415 
L 942.427511 107.362557 
L 942.526086 107.314527 
L 942.821811 107.948409 
L 943.018961 107.919253 
L 943.117536 107.750814 
L 943.314686 107.853199 
L 943.511836 108.041429 
L 943.807561 108.307509 
L 944.004711 108.687214 
L 944.201861 109.013931 
L 944.399011 109.434805 
L 944.497586 109.320453 
L 945.58191 114.108166 
L 945.77906 115.077042 
L 945.877635 115.31917 
L 946.469085 119.902297 
L 946.56766 120.156057 
L 948.243434 134.980799 
L 948.736309 139.156387 
L 949.032034 141.22379 
L 949.229184 141.690628 
L 949.327759 141.696 
L 949.722059 143.335547 
L 949.820634 143.452536 
L 950.017784 143.064399 
L 951.102108 149.635358 
L 951.594983 153.2207 
L 951.792133 154.471457 
L 952.482158 159.863572 
L 952.679308 160.905728 
L 952.777882 161.013819 
L 953.369332 165.897428 
L 953.467907 165.744715 
L 953.763632 167.046005 
L 953.960782 167.342308 
L 954.157932 167.07981 
L 954.650807 169.605318 
L 954.749382 169.517949 
L 954.847957 169.363795 
L 954.946532 169.432567 
L 955.143682 168.294846 
L 955.340831 168.814866 
L 955.537981 168.737781 
L 955.932281 170.807047 
L 956.129431 171.488427 
L 956.228006 171.4634 
L 956.523731 173.012238 
L 957.115181 176.109839 
L 957.213756 175.543498 
L 957.410906 175.752562 
L 957.608056 175.56992 
L 957.805206 176.346329 
L 958.396655 179.256898 
L 958.49523 179.1821 
L 959.08668 182.592449 
L 959.579555 186.322223 
L 959.67813 186.384353 
L 960.07243 188.624791 
L 960.171005 188.745882 
L 960.565304 187.003789 
L 960.959604 184.458827 
L 961.058179 183.642646 
L 961.156754 183.662831 
L 961.551054 182.31227 
L 961.945354 179.046256 
L 962.635379 172.186322 
L 963.029678 164.784915 
L 964.114003 138.375414 
L 964.606878 128.487221 
L 966.874102 105.464047 
L 968.845601 89.0452 
L 969.141326 87.144749 
L 970.225651 76.731253 
L 970.324226 76.832889 
L 970.619951 75.813502 
L 970.8171 74.994034 
L 970.915675 74.792065 
L 971.40855 72.68086 
L 971.704275 72.070132 
L 972 70.675545 
L 972 70.675545 
" clip-path="url(#p244bf23eb7)" style="fill: none; stroke: #1f77b4; stroke-width: 1.5; stroke-linecap: square"/>
   </g>
   <g id="patch_3">
    <path d="M 135 315 
L 135 43.2 
" style="fill: none; stroke: #000000; stroke-width: 0.8; stroke-linejoin: miter; stroke-linecap: square"/>
   </g>
   <g id="patch_4">
    <path d="M 972 315 
L 972 43.2 
" style="fill: none; stroke: #000000; stroke-width: 0.8; stroke-linejoin: miter; stroke-linecap: square"/>
   </g>
   <g id="patch_5">
    <path d="M 135 315 
L 972 315 
" style="fill: none; stroke: #000000; stroke-width: 0.8; stroke-linejoin: miter; stroke-linecap: square"/>
   </g>
   <g id="patch_6">
    <path d="M 135 43.2 
L 972 43.2 
" style="fill: none; stroke: #000000; stroke-width: 0.8; stroke-linejoin: miter; stroke-linecap: square"/>
   </g>
   <g id="legend_1">
    <g id="patch_7">
     <path d="M 143.4 70.41375 
L 219.87 70.41375 
Q 222.27 70.41375 222.27 68.01375 
L 222.27 51.6 
Q 222.27 49.2 219.87 49.2 
L 143.4 49.2 
Q 141 49.2 141 51.6 
L 141 68.01375 
Q 141 70.41375 143.4 70.41375 
z
" style="fill: #ffffff; opacity: 0.8; stroke: #cccccc; stroke-linejoin: miter"/>
    </g>
    <g id="line2d_35">
     <path d="M 145.8 58.918125 
L 157.8 58.918125 
L 169.8 58.918125 
" style="fill: none; stroke: #1f77b4; stroke-width: 1.5; stroke-linecap: square"/>
    </g>
    <g id="text_15">
     <!-- TOTAL -->
     <g transform="translate(179.4 63.118125)scale(0.12 -0.12)">
      <defs>
       <path id="DejaVuSans-54" d="M -19 4666 
L 3928 4666 
L 3928 4134 
L 2272 4134 
L 2272 0 
L 1638 0 
L 1638 4134 
L -19 4134 
L -19 4666 
z
" transform="scale(0.015625)"/>
       <path id="DejaVuSans-4f" d="M 2522 4238 
Q 1834 4238 1429 3725 
Q 1025 3213 1025 2328 
Q 1025 1447 1429 934 
Q 1834 422 2522 422 
Q 3209 422 3611 934 
Q 4013 1447 4013 2328 
Q 4013 3213 3611 3725 
Q 3209 4238 2522 4238 
z
M 2522 4750 
Q 3503 4750 4090 4092 
Q 4678 3434 4678 2328 
Q 4678 1225 4090 567 
Q 3503 -91 2522 -91 
Q 1538 -91 948 565 
Q 359 1222 359 2328 
Q 359 3434 948 4092 
Q 1538 4750 2522 4750 
z
" transform="scale(0.015625)"/>
       <path id="DejaVuSans-4c" d="M 628 4666 
L 1259 4666 
L 1259 531 
L 3531 531 
L 3531 0 
L 628 0 
L 628 4666 
z
" transform="scale(0.015625)"/>
      </defs>
      <use xlink:href="#DejaVuSans-54"/>
      <use xlink:href="#DejaVuSans-4f" x="61.083984"/>
      <use xlink:href="#DejaVuSans-54" x="139.794922"/>
      <use xlink:href="#DejaVuSans-41" x="193.128906"/>
      <use xlink:href="#DejaVuSans-4c" x="261.537109"/>
     </g>
    </g>
   </g>
  </g>
 </g>
 <defs>
  <clipPath id="p244bf23eb7">
   <rect x="135" y="43.2" width="837" height="271.8"/>
  </clipPath>
 </defs>
</svg>
